<svg width="57" height="56" viewBox="0 0 57 56" fill="none" xmlns="http://www.w3.org/2000/svg">
<path d="M18.7478 33.7402L16.0717 44.2562C15.2683 47.4135 18.6457 50.0375 21.6538 48.5928L26.1637 46.427C27.6357 45.72 29.3643 45.72 30.8364 46.427L35.3463 48.5928C38.3543 50.0375 41.7318 47.4135 40.9283 44.2562L38.2523 33.7402" stroke="#239D60" stroke-width="1.5"/>
<path d="M13.928 16.7119C15.0259 12.1788 18.6805 8.63926 23.361 7.57594C26.7411 6.80802 30.2589 6.80802 33.6391 7.57594C38.3196 8.63926 41.9742 12.1788 43.072 16.7119C43.8649 19.9856 43.8649 23.3927 43.072 26.6664C41.9742 31.1996 38.3196 34.7391 33.6391 35.8024C30.2589 36.5703 26.7411 36.5703 23.361 35.8024C18.6805 34.7391 15.0259 31.1996 13.928 26.6665C13.1352 23.3927 13.1352 19.9856 13.928 16.7119Z" stroke="#212125" stroke-width="1.5"/>
</svg>
