<svg width="57" height="56" viewBox="0 0 57 56" fill="none" xmlns="http://www.w3.org/2000/svg">
<path d="M11.3573 39.7745L12.0515 39.4907L11.3573 39.7745ZM10.5476 26.7056L9.82387 26.5088H9.82387L10.5476 26.7056ZM46.4525 26.7056L47.1762 26.5088V26.5088L46.4525 26.7056ZM45.6428 39.7745L44.9486 39.4907L44.9486 39.4907L45.6428 39.7745ZM33.2518 48.6327L33.1364 47.8916V47.8916L33.2518 48.6327ZM23.7482 48.6327L23.8636 47.8916L23.8636 47.8916L23.7482 48.6327ZM19.359 18.1659L19.2103 17.4308L19.359 18.1659ZM37.6411 18.1659L37.4923 18.9011L37.6411 18.1659ZM22.0012 48.3608L21.8859 49.1019H21.8859L22.0012 48.3608ZM11.574 40.3046L10.8798 40.5885H10.8798L11.574 40.3046ZM34.9988 48.3608L35.1141 49.1019H35.1141L34.9988 48.3608ZM45.426 40.3046L46.1202 40.5885V40.5885L45.426 40.3046ZM46.2739 26.0489L45.5502 26.2457V26.2457L46.2739 26.0489ZM10.7262 26.0489L11.4499 26.2457H11.4499L10.7262 26.0489ZM34.8835 47.6198L33.1364 47.8916L33.3671 49.3738L35.1141 49.1019L34.8835 47.6198ZM23.8636 47.8916L22.1165 47.6198L21.8859 49.1019L23.6329 49.3738L23.8636 47.8916ZM45.5502 26.2457L45.7288 26.9024L47.1762 26.5088L46.9977 25.8521L45.5502 26.2457ZM44.9486 39.4907L44.7318 40.0208L46.1202 40.5885L46.337 40.0584L44.9486 39.4907ZM12.2682 40.0208L12.0515 39.4907L10.6631 40.0584L10.8798 40.5885L12.2682 40.0208ZM11.2713 26.9024L11.4499 26.2457L10.0024 25.8521L9.82387 26.5088L11.2713 26.9024ZM12.0515 39.4907C10.4102 35.4767 10.1376 31.0718 11.2713 26.9024L9.82387 26.5088C8.60334 30.9976 8.89745 35.7403 10.6631 40.0584L12.0515 39.4907ZM45.7288 26.9024C46.8625 31.0718 46.5898 35.4767 44.9486 39.4907L46.337 40.0584C48.1026 35.7403 48.3967 30.9976 47.1762 26.5088L45.7288 26.9024ZM33.1364 47.8916C30.0657 48.3695 26.9343 48.3695 23.8636 47.8916L23.6329 49.3738C26.8565 49.8754 30.1435 49.8754 33.3671 49.3738L33.1364 47.8916ZM19.5078 18.9011C25.4368 17.7013 31.5633 17.7013 37.4923 18.9011L37.7898 17.4308C31.6644 16.1913 25.3357 16.1913 19.2103 17.4308L19.5078 18.9011ZM22.1165 47.6198C17.6426 46.9235 13.9053 44.0246 12.2682 40.0208L10.8798 40.5885C12.7251 45.1015 16.9169 48.3287 21.8859 49.1019L22.1165 47.6198ZM35.1141 49.1019C40.0831 48.3287 44.2749 45.1015 46.1202 40.5885L44.7318 40.0208C43.0947 44.0246 39.3574 46.9235 34.8835 47.6198L35.1141 49.1019ZM37.4923 18.9011C41.437 19.6993 44.5465 22.5544 45.5502 26.2457L46.9977 25.8521C45.8375 21.5853 42.2616 18.3357 37.7898 17.4308L37.4923 18.9011ZM19.2103 17.4308C14.7385 18.3357 11.1626 21.5853 10.0024 25.8521L11.4499 26.2457C12.4536 22.5544 15.5631 19.6993 19.5078 18.9011L19.2103 17.4308Z" fill="#212125"/>
<path d="M35.9143 18.7268L35.2277 18.4251V18.4251L35.9143 18.7268ZM34.7306 19.5562C34.564 19.9354 34.7363 20.3779 35.1155 20.5445C35.4947 20.7112 35.9372 20.5389 36.1039 20.1596L34.7306 19.5562ZM21.0859 18.7268L21.7725 18.4251H21.7725L21.0859 18.7268ZM20.8963 20.1596C21.0629 20.5389 21.5054 20.7112 21.8846 20.5445C22.2639 20.3779 22.4362 19.9354 22.2695 19.5562L20.8963 20.1596ZM26.7336 7.17314L26.8598 7.91244L26.8598 7.91244L26.7336 7.17314ZM27.0077 7.12636L26.8815 6.38705V6.38705L27.0077 7.12636ZM29.9925 7.12636L29.8663 7.86567L29.8663 7.86567L29.9925 7.12636ZM30.2666 7.17313L30.3927 6.43382L30.3927 6.43382L30.2666 7.17313ZM36.4925 12.9462L37.2251 12.7852L36.4925 12.9462ZM20.5076 12.9462L21.2401 13.1071H21.2401L20.5076 12.9462ZM35.2277 18.4251L34.7306 19.5562L36.1039 20.1596L36.6009 19.0285L35.2277 18.4251ZM20.3992 19.0285L20.8963 20.1596L22.2695 19.5562L21.7725 18.4251L20.3992 19.0285ZM26.8598 7.91244L27.1338 7.86567L26.8815 6.38705L26.6074 6.43383L26.8598 7.91244ZM29.8663 7.86567L30.1404 7.91244L30.3927 6.43382L30.1187 6.38705L29.8663 7.86567ZM35.76 13.1071C36.1516 14.8894 35.9665 16.7437 35.2277 18.4251L36.6009 19.0285C37.4669 17.0578 37.6852 14.8796 37.2251 12.7852L35.76 13.1071ZM19.7751 12.7852C19.3149 14.8796 19.5332 17.0578 20.3992 19.0285L21.7725 18.4251C21.0336 16.7437 20.8485 14.8894 21.2401 13.1071L19.7751 12.7852ZM27.1338 7.86567C28.0375 7.71144 28.9627 7.71144 29.8663 7.86567L30.1187 6.38705C29.048 6.20432 27.9521 6.20432 26.8815 6.38705L27.1338 7.86567ZM37.2251 12.7852C36.5061 9.51301 33.7895 7.01355 30.3927 6.43382L30.1404 7.91244C32.969 8.39521 35.1793 10.4643 35.76 13.1071L37.2251 12.7852ZM21.2401 13.1071C21.8208 10.4643 24.0312 8.39521 26.8598 7.91244L26.6074 6.43383C23.2107 7.01355 20.4941 9.51301 19.7751 12.7852L21.2401 13.1071Z" fill="#239D60"/>
</svg>
