<svg width="14" height="15" viewBox="0 0 14 15" fill="none" xmlns="http://www.w3.org/2000/svg">
<path d="M11.9259 4.51834C10.9538 4.84239 9.65759 3.5462 9.98164 2.57405M9.90301 2.65268L7.80859 4.74709C6.89807 5.65761 6.25212 6.79848 5.93981 8.04771L5.83861 8.45252C5.80708 8.57865 5.92133 8.6929 6.04746 8.66137L6.45227 8.56017C7.7015 8.24786 8.84237 7.60191 9.75289 6.69138L11.8473 4.59697C12.1051 4.33914 12.25 3.98945 12.25 3.62482C12.25 2.86553 11.6345 2.25 10.8752 2.25C10.5105 2.25 10.1608 2.39485 9.90301 2.65268Z" stroke="#4EB07F"/>
<path d="M7 2.25C6.40306 2.25 5.80612 2.31862 5.22109 2.45584C3.60092 2.83588 2.33588 4.10092 1.95585 5.72108C1.68138 6.89115 1.68138 8.10885 1.95585 9.27892C2.33588 10.8991 3.60092 12.1641 5.22109 12.5442C6.39115 12.8186 7.60885 12.8186 8.77891 12.5442C10.3991 12.1641 11.6641 10.8991 12.0442 9.27891C12.1814 8.69388 12.25 8.09693 12.25 7.49998" stroke="#B2B2B2" stroke-linecap="round"/>
</svg>
