<svg width="190" height="55" viewBox="0 0 190 55" fill="none" xmlns="http://www.w3.org/2000/svg">
<mask id="path-1-outside-1_1212_3116" maskUnits="userSpaceOnUse" x="-3.5" y="-3" width="196" height="61" fill="black">
<rect fill="white" x="-3.5" y="-3" width="196" height="61"/>
<path d="M9.6709 37.3164C7.87402 37.3164 6.32422 37.1592 5.02148 36.8447C3.73372 36.5303 2.70052 36.0137 1.92188 35.2949C1.1582 34.6211 0.641602 33.8125 0.37207 32.8691C0.117513 31.9108 -0.00976562 30.9375 -0.00976562 29.9492C-0.00976562 29.4251 0.0201823 28.8711 0.0800781 28.2871C0.289714 25.9212 0.731445 23.7275 1.40527 21.7061C2.09408 19.6846 3.03743 17.9551 4.23535 16.5176C5.23861 15.3047 6.43652 14.3613 7.8291 13.6875C9.22168 13.0137 10.8464 12.6768 12.7031 12.6768C14.5449 12.6768 15.9899 12.9912 17.0381 13.6201C18.1012 14.249 18.8724 15.11 19.3516 16.2031C19.6361 16.847 19.8457 17.5583 19.9805 18.3369C20.1302 19.1156 20.2201 19.8568 20.25 20.5605C20.2949 21.2493 20.3174 21.8558 20.3174 22.3799C20.3174 22.8141 20.3024 23.3981 20.2725 24.1318C20.2425 24.8656 20.1751 25.7715 20.0703 26.8496L19.127 37.3164H9.6709ZM14.5674 32.9141L14.7246 31.2295L15.2188 25.6592C15.3685 24.012 15.4508 22.9189 15.4658 22.3799C15.4808 21.8408 15.4883 21.5189 15.4883 21.4141C15.4883 20.5905 15.4059 19.9242 15.2412 19.415C15.0765 18.9059 14.8818 18.5016 14.6572 18.2021C14.4476 17.9027 14.1855 17.6781 13.8711 17.5283C13.5716 17.3636 13.2272 17.2588 12.8379 17.2139C12.4486 17.1689 11.9993 17.1465 11.4902 17.1465C10.7116 17.1465 9.94043 17.4235 9.17676 17.9775C8.41309 18.5316 7.73177 19.3252 7.13281 20.3584C6.69857 21.1071 6.30924 21.9906 5.96484 23.0088C5.62044 24.012 5.37337 25.1201 5.22363 26.333C5.16374 26.8571 5.13379 27.3512 5.13379 27.8154C5.13379 29.238 5.44076 30.3535 6.05469 31.1621C6.51888 31.791 7.08789 32.2402 7.76172 32.5098C8.45052 32.7793 9.25911 32.9141 10.1875 32.9141H14.5674ZM24.877 15.5518C24.4427 15.5518 24.0309 15.4694 23.6416 15.3047C23.2523 15.14 22.9079 14.9154 22.6084 14.6309C22.3239 14.3314 22.0993 13.987 21.9346 13.5977C21.7699 13.2083 21.6875 12.7965 21.6875 12.3623C21.6875 11.9131 21.7699 11.4938 21.9346 11.1045C22.0993 10.7152 22.3239 10.3783 22.6084 10.0938C22.9079 9.79427 23.2523 9.56217 23.6416 9.39746C24.0309 9.23275 24.4427 9.15039 24.877 9.15039C25.4759 9.15039 26.0225 9.30762 26.5166 9.62207C27.0107 9.92155 27.3926 10.3109 27.6621 10.79C27.9316 10.3109 28.3135 9.92155 28.8076 9.62207C29.3018 9.30762 29.8483 9.15039 30.4473 9.15039C30.8965 9.15039 31.3083 9.23275 31.6826 9.39746C32.0719 9.56217 32.4089 9.79427 32.6934 10.0938C32.9928 10.3783 33.2249 10.7152 33.3896 11.1045C33.5544 11.4938 33.6367 11.9131 33.6367 12.3623C33.6367 12.7965 33.5544 13.2083 33.3896 13.5977C33.2249 13.987 32.9928 14.3314 32.6934 14.6309C32.4089 14.9154 32.0719 15.14 31.6826 15.3047C31.3083 15.4694 30.8965 15.5518 30.4473 15.5518C29.8483 15.5518 29.3018 15.402 28.8076 15.1025C28.3135 14.7881 27.9316 14.3838 27.6621 13.8896C27.3926 14.3838 27.0107 14.7881 26.5166 15.1025C26.0225 15.402 25.4759 15.5518 24.877 15.5518ZM28.1787 3.06348C28.613 3.06348 29.0247 3.14583 29.4141 3.31055C29.8034 3.47526 30.1403 3.69987 30.4248 3.98438C30.7093 4.26888 30.9339 4.60579 31.0986 4.99512C31.2633 5.38444 31.3457 5.79622 31.3457 6.23047C31.3457 6.67969 31.2633 7.09896 31.0986 7.48828C30.9339 7.8776 30.7093 8.22201 30.4248 8.52148C30.1403 8.80599 29.8034 9.0306 29.4141 9.19531C29.0247 9.36003 28.613 9.44238 28.1787 9.44238C27.7445 9.44238 27.3327 9.36003 26.9434 9.19531C26.554 9.0306 26.2096 8.80599 25.9102 8.52148C25.6257 8.22201 25.401 7.8776 25.2363 7.48828C25.0716 7.09896 24.9893 6.67969 24.9893 6.23047C24.9893 5.79622 25.0716 5.38444 25.2363 4.99512C25.401 4.60579 25.6257 4.26888 25.9102 3.98438C26.2096 3.69987 26.554 3.47526 26.9434 3.31055C27.3327 3.14583 27.7445 3.06348 28.1787 3.06348ZM31.458 37.3164H27.8193L27.4824 41C27.4525 41.3743 27.3776 41.6514 27.2578 41.8311C27.153 42.0257 27.0107 42.2054 26.8311 42.3701H21.8223C22.0319 42.1006 22.1891 41.861 22.2939 41.6514C22.3838 41.4567 22.4437 41.2396 22.4736 41L24.3154 20.5605H29.2793L28.2012 32.9141H31.9072L31.458 37.3164ZM30.4473 32.9141H34.1309L35.2314 20.5605H40.2178L38.6904 37.3164H30.0879L30.4473 32.9141ZM38.2637 51.8262C38.2188 52.2754 38.0915 52.6947 37.8818 53.084C37.6722 53.4733 37.4027 53.8027 37.0732 54.0723C36.7438 54.3568 36.3919 54.5589 36.0176 54.6787C35.6582 54.7985 35.3063 54.8584 34.9619 54.8584C34.8571 54.8584 34.7448 54.8509 34.625 54.8359C34.1758 54.791 33.7565 54.6637 33.3672 54.4541C32.9779 54.2445 32.641 53.9749 32.3564 53.6455C32.0869 53.3311 31.8848 52.9867 31.75 52.6123C31.6302 52.2529 31.5703 51.901 31.5703 51.5566C31.5703 51.4368 31.5778 51.3245 31.5928 51.2197C31.6676 50.5908 31.8848 50.0368 32.2441 49.5576C32.6035 49.0785 33.0527 48.7191 33.5918 48.4795C33.1126 48.1351 32.7458 47.7158 32.4912 47.2217C32.2367 46.7275 32.1094 46.2334 32.1094 45.7393C32.1094 45.6195 32.1169 45.5072 32.1318 45.4023C32.1768 44.9382 32.304 44.5114 32.5137 44.1221C32.7233 43.7327 32.9928 43.4033 33.3223 43.1338C33.6517 42.8643 33.9961 42.6696 34.3555 42.5498C34.7298 42.43 35.0817 42.3701 35.4111 42.3701C35.5309 42.3701 35.6432 42.3776 35.748 42.3926C36.2122 42.4375 36.639 42.5648 37.0283 42.7744C37.4176 42.984 37.7471 43.2536 38.0166 43.583C38.3011 43.9124 38.5033 44.2568 38.623 44.6162C38.7428 44.9906 38.8027 45.3424 38.8027 45.6719C38.8027 45.7767 38.7952 45.889 38.7803 46.0088C38.7204 46.6377 38.5107 47.1917 38.1514 47.6709C37.792 48.1501 37.3428 48.5169 36.8037 48.7715C37.2829 49.1009 37.6497 49.5127 37.9043 50.0068C38.1589 50.501 38.2861 50.9951 38.2861 51.4893C38.2861 51.609 38.2786 51.7214 38.2637 51.8262ZM61.8027 37.3164L61.3311 42.3926H56.3672L56.6592 39.3379L56.8613 37.3389H52.3467C50.5648 37.3389 49.0225 37.1816 47.7197 36.8672C46.417 36.5378 45.3688 36.0137 44.5752 35.2949C43.8265 34.6211 43.3174 33.8125 43.0479 32.8691C42.7933 31.9108 42.666 30.9375 42.666 29.9492C42.666 29.4251 42.696 28.8711 42.7559 28.2871C42.9655 25.9212 43.4072 23.7275 44.0811 21.7061C44.7699 19.6846 45.7132 17.9551 46.9111 16.5176C47.9144 15.3197 49.1123 14.3838 50.5049 13.71C51.8975 13.0212 53.5221 12.6768 55.3789 12.6768C57.2207 12.6768 58.6657 12.9912 59.7139 13.6201C60.777 14.249 61.5482 15.11 62.0273 16.2031C62.3118 16.847 62.5215 17.5658 62.6562 18.3594C62.806 19.138 62.8958 19.8792 62.9258 20.583C62.9707 21.2718 62.9932 21.8783 62.9932 22.4023C62.9932 22.8366 62.9782 23.4206 62.9482 24.1543C62.9183 24.888 62.8509 25.7939 62.7461 26.8721L62.207 32.9141L61.8027 37.3164ZM57.2432 32.9141L57.4004 31.2295L57.8945 25.6816C58.0443 24.0195 58.1266 22.9189 58.1416 22.3799C58.1566 21.8408 58.1641 21.5189 58.1641 21.4141C58.1641 20.5905 58.0817 19.9242 57.917 19.415C57.7673 18.9059 57.5801 18.5016 57.3555 18.2021C57.1309 17.9027 56.8688 17.6781 56.5693 17.5283C56.2699 17.3786 55.918 17.2812 55.5137 17.2363C55.1243 17.1914 54.6751 17.1689 54.166 17.1689C53.3874 17.1689 52.6162 17.446 51.8525 18C51.0889 18.5391 50.4076 19.3252 49.8086 20.3584C49.3743 21.1221 48.985 22.013 48.6406 23.0312C48.3112 24.0345 48.0641 25.1426 47.8994 26.3555C47.8395 26.8796 47.8096 27.3737 47.8096 27.8379C47.8096 29.2454 48.1165 30.3535 48.7305 31.1621C49.1947 31.791 49.7637 32.2402 50.4375 32.5098C51.1263 32.7793 51.9349 32.9141 52.8633 32.9141H57.2432ZM104.905 37.3164C104.426 39.1432 103.782 40.7529 102.974 42.1455C102.18 43.5381 101.222 44.7585 100.099 45.8066C98.4665 47.334 96.5498 48.457 94.3486 49.1758C92.1475 49.9095 89.6992 50.2764 87.0039 50.2764C85.9707 50.2764 84.9375 50.2015 83.9043 50.0518C82.8861 49.902 81.8903 49.6549 80.917 49.3105C79.9587 48.9811 79.0378 48.5469 78.1543 48.0078C77.2858 47.4688 76.4847 46.8099 75.751 46.0312C74.598 44.8184 73.7295 43.4183 73.1455 41.8311C72.5765 40.2588 72.292 38.5817 72.292 36.7998C72.292 35.6468 72.3893 34.5163 72.584 33.4082C72.7936 32.3001 73.1081 31.237 73.5273 30.2188C73.9616 29.2005 74.5007 28.2422 75.1445 27.3438C75.8034 26.4303 76.582 25.5993 77.4805 24.8506C79.1725 23.4131 81.1715 22.3424 83.4775 21.6387C85.7835 20.9349 88.2767 20.583 90.957 20.583H98.167L97.7627 24.9854H89.6094C87.9323 24.9854 86.36 25.2549 84.8926 25.7939C83.4251 26.318 82.1299 27.0742 81.0068 28.0625C79.779 29.1406 78.8431 30.3984 78.1992 31.8359C77.5703 33.2585 77.2559 34.7858 77.2559 36.418C77.2559 37.8405 77.5029 39.1208 77.9971 40.2588C78.4912 41.3968 79.1875 42.3776 80.0859 43.2012C81.1191 44.1595 82.3096 44.8408 83.6572 45.2451C85.0049 45.6494 86.3675 45.8516 87.7451 45.8516C89.4222 45.8516 91.0394 45.5745 92.5967 45.0205C94.154 44.4814 95.5465 43.598 96.7744 42.3701C97.8076 41.3369 98.6686 40.0492 99.3574 38.5068C100.061 36.9645 100.518 35.1003 100.728 32.9141L101.851 20.583H106.837L105.736 32.9141H109.397L110.521 20.583H115.484L114.384 32.9141H118.045L119.168 20.583H124.132L123.031 32.9141L122.627 37.3164H104.905ZM110.902 15.5518C110.468 15.5518 110.056 15.4694 109.667 15.3047C109.278 15.14 108.933 14.9154 108.634 14.6309C108.349 14.3314 108.125 13.987 107.96 13.5977C107.795 13.2083 107.713 12.7965 107.713 12.3623C107.713 11.9131 107.795 11.4938 107.96 11.1045C108.125 10.7152 108.349 10.3783 108.634 10.0938C108.933 9.79427 109.278 9.56217 109.667 9.39746C110.056 9.23275 110.468 9.15039 110.902 9.15039C111.501 9.15039 112.048 9.30762 112.542 9.62207C113.036 9.92155 113.418 10.3109 113.688 10.79C113.957 10.3109 114.339 9.92155 114.833 9.62207C115.327 9.30762 115.874 9.15039 116.473 9.15039C116.922 9.15039 117.334 9.23275 117.708 9.39746C118.097 9.56217 118.434 9.79427 118.719 10.0938C119.018 10.3783 119.25 10.7152 119.415 11.1045C119.58 11.4938 119.662 11.9131 119.662 12.3623C119.662 12.7965 119.58 13.2083 119.415 13.5977C119.25 13.987 119.018 14.3314 118.719 14.6309C118.434 14.9154 118.097 15.14 117.708 15.3047C117.334 15.4694 116.922 15.5518 116.473 15.5518C115.874 15.5518 115.327 15.402 114.833 15.1025C114.339 14.7881 113.957 14.3838 113.688 13.8896C113.418 14.3838 113.036 14.7881 112.542 15.1025C112.048 15.402 111.501 15.5518 110.902 15.5518ZM114.204 3.06348C114.638 3.06348 115.05 3.14583 115.439 3.31055C115.829 3.47526 116.166 3.69987 116.45 3.98438C116.735 4.26888 116.959 4.60579 117.124 4.99512C117.289 5.38444 117.371 5.79622 117.371 6.23047C117.371 6.67969 117.289 7.09896 117.124 7.48828C116.959 7.8776 116.735 8.22201 116.45 8.52148C116.166 8.80599 115.829 9.0306 115.439 9.19531C115.05 9.36003 114.638 9.44238 114.204 9.44238C113.77 9.44238 113.358 9.36003 112.969 9.19531C112.579 9.0306 112.235 8.80599 111.936 8.52148C111.651 8.22201 111.426 7.8776 111.262 7.48828C111.097 7.09896 111.015 6.67969 111.015 6.23047C111.015 5.79622 111.097 5.38444 111.262 4.99512C111.426 4.60579 111.651 4.26888 111.936 3.98438C112.235 3.69987 112.579 3.47526 112.969 3.31055C113.358 3.14583 113.77 3.06348 114.204 3.06348ZM146.211 37.3164L145.739 42.3926H140.775L141.067 39.3379L141.27 37.3389H136.755C134.973 37.3389 133.431 37.1816 132.128 36.8672C130.825 36.5378 129.777 36.0137 128.983 35.2949C128.235 34.6211 127.726 33.8125 127.456 32.8691C127.201 31.9108 127.074 30.9375 127.074 29.9492C127.074 29.4251 127.104 28.8711 127.164 28.2871C127.374 25.9212 127.815 23.7275 128.489 21.7061C129.178 19.6846 130.121 17.9551 131.319 16.5176C132.323 15.3197 133.521 14.3838 134.913 13.71C136.306 13.0212 137.93 12.6768 139.787 12.6768C141.629 12.6768 143.074 12.9912 144.122 13.6201C145.185 14.249 145.956 15.11 146.436 16.2031C146.72 16.847 146.93 17.5658 147.064 18.3594C147.214 19.138 147.304 19.8792 147.334 20.583C147.379 21.2718 147.401 21.8783 147.401 22.4023C147.401 22.8366 147.386 23.4206 147.356 24.1543C147.326 24.888 147.259 25.7939 147.154 26.8721L146.615 32.9141L146.211 37.3164ZM141.651 32.9141L141.809 31.2295L142.303 25.6816C142.452 24.0195 142.535 22.9189 142.55 22.3799C142.565 21.8408 142.572 21.5189 142.572 21.4141C142.572 20.5905 142.49 19.9242 142.325 19.415C142.175 18.9059 141.988 18.5016 141.764 18.2021C141.539 17.9027 141.277 17.6781 140.978 17.5283C140.678 17.3786 140.326 17.2812 139.922 17.2363C139.533 17.1914 139.083 17.1689 138.574 17.1689C137.796 17.1689 137.024 17.446 136.261 18C135.497 18.5391 134.816 19.3252 134.217 20.3584C133.783 21.1221 133.393 22.013 133.049 23.0312C132.719 24.0345 132.472 25.1426 132.308 26.3555C132.248 26.8796 132.218 27.3737 132.218 27.8379C132.218 29.2454 132.525 30.3535 133.139 31.1621C133.603 31.791 134.172 32.2402 134.846 32.5098C135.535 32.7793 136.343 32.9141 137.271 32.9141H141.651ZM158.542 37.3164H154.903L154.566 41C154.536 41.3743 154.462 41.6514 154.342 41.8311C154.237 42.0257 154.095 42.2054 153.915 42.3701H148.906C149.116 42.1006 149.273 41.861 149.378 41.6514C149.468 41.4567 149.528 41.2396 149.558 41L151.399 20.5605H156.363L155.285 32.9141H158.991L158.542 37.3164ZM155.263 32.9141H167.818L167.414 37.3164H154.858L155.263 32.9141ZM162.54 32.9141H175.096L174.691 37.3164H162.136L162.54 32.9141ZM183.676 7.62305C183.212 7.62305 182.777 7.54069 182.373 7.37598C181.969 7.19629 181.609 6.95671 181.295 6.65723C180.995 6.34277 180.756 5.9834 180.576 5.5791C180.411 5.1748 180.329 4.74056 180.329 4.27637C180.329 3.81217 180.411 3.37793 180.576 2.97363C180.756 2.56934 180.995 2.21745 181.295 1.91797C181.609 1.61849 181.969 1.38639 182.373 1.22168C182.777 1.04199 183.212 0.952148 183.676 0.952148C184.14 0.952148 184.574 1.04199 184.979 1.22168C185.383 1.38639 185.735 1.61849 186.034 1.91797C186.334 2.21745 186.573 2.56934 186.753 2.97363C186.933 3.37793 187.022 3.81217 187.022 4.27637C187.022 4.74056 186.933 5.1748 186.753 5.5791C186.573 5.9834 186.334 6.34277 186.034 6.65723C185.735 6.95671 185.383 7.19629 184.979 7.37598C184.574 7.54069 184.14 7.62305 183.676 7.62305ZM184.013 24.8057L184.17 22.9863C184.245 22.1777 184.32 21.4665 184.395 20.8525C184.469 20.2386 184.507 19.7145 184.507 19.2803C184.507 19.1904 184.499 19.0107 184.484 18.7412C184.484 18.4567 184.395 18.1797 184.215 17.9102C184.035 17.6406 183.728 17.4909 183.294 17.4609H183.137C182.702 17.4609 182.283 17.5807 181.879 17.8203C181.475 18.0449 181.108 18.3594 180.778 18.7637C180.449 19.168 180.172 19.6247 179.947 20.1338C179.723 20.6429 179.58 21.1445 179.521 21.6387C179.491 21.8783 179.476 22.1104 179.476 22.335C179.476 22.4847 179.483 22.6868 179.498 22.9414C179.528 23.181 179.648 23.4505 179.857 23.75C180.142 24.1243 180.486 24.3939 180.891 24.5586C181.295 24.7233 181.774 24.8057 182.328 24.8057H184.013ZM183.227 32.9141L183.406 31.2295L183.608 29.208H183.159C181.677 29.208 180.367 29.0957 179.229 28.8711C178.09 28.6465 177.155 28.2422 176.421 27.6582C175.687 27.0592 175.186 26.333 174.916 25.4795C174.646 24.626 174.512 23.735 174.512 22.8066C174.512 22.3424 174.542 21.8408 174.602 21.3018C174.706 20.1188 175.028 19.0033 175.567 17.9551C176.106 16.9069 176.788 15.9935 177.611 15.2148C178.435 14.4212 179.371 13.7923 180.419 13.3281C181.467 12.8639 182.56 12.6318 183.698 12.6318C184.701 12.6318 185.57 12.8639 186.304 13.3281C187.052 13.7923 187.659 14.4362 188.123 15.2598C188.602 16.0684 188.909 16.9219 189.044 17.8203C189.194 18.7038 189.269 19.5199 189.269 20.2686C189.269 20.7627 189.246 21.2718 189.201 21.7959L188.64 27.8379L187.764 37.3164H171.727L172.131 32.9141H183.227Z"/>
</mask>
<path d="M9.6709 37.3164C7.87402 37.3164 6.32422 37.1592 5.02148 36.8447C3.73372 36.5303 2.70052 36.0137 1.92188 35.2949C1.1582 34.6211 0.641602 33.8125 0.37207 32.8691C0.117513 31.9108 -0.00976562 30.9375 -0.00976562 29.9492C-0.00976562 29.4251 0.0201823 28.8711 0.0800781 28.2871C0.289714 25.9212 0.731445 23.7275 1.40527 21.7061C2.09408 19.6846 3.03743 17.9551 4.23535 16.5176C5.23861 15.3047 6.43652 14.3613 7.8291 13.6875C9.22168 13.0137 10.8464 12.6768 12.7031 12.6768C14.5449 12.6768 15.9899 12.9912 17.0381 13.6201C18.1012 14.249 18.8724 15.11 19.3516 16.2031C19.6361 16.847 19.8457 17.5583 19.9805 18.3369C20.1302 19.1156 20.2201 19.8568 20.25 20.5605C20.2949 21.2493 20.3174 21.8558 20.3174 22.3799C20.3174 22.8141 20.3024 23.3981 20.2725 24.1318C20.2425 24.8656 20.1751 25.7715 20.0703 26.8496L19.127 37.3164H9.6709ZM14.5674 32.9141L14.7246 31.2295L15.2188 25.6592C15.3685 24.012 15.4508 22.9189 15.4658 22.3799C15.4808 21.8408 15.4883 21.5189 15.4883 21.4141C15.4883 20.5905 15.4059 19.9242 15.2412 19.415C15.0765 18.9059 14.8818 18.5016 14.6572 18.2021C14.4476 17.9027 14.1855 17.6781 13.8711 17.5283C13.5716 17.3636 13.2272 17.2588 12.8379 17.2139C12.4486 17.1689 11.9993 17.1465 11.4902 17.1465C10.7116 17.1465 9.94043 17.4235 9.17676 17.9775C8.41309 18.5316 7.73177 19.3252 7.13281 20.3584C6.69857 21.1071 6.30924 21.9906 5.96484 23.0088C5.62044 24.012 5.37337 25.1201 5.22363 26.333C5.16374 26.8571 5.13379 27.3512 5.13379 27.8154C5.13379 29.238 5.44076 30.3535 6.05469 31.1621C6.51888 31.791 7.08789 32.2402 7.76172 32.5098C8.45052 32.7793 9.25911 32.9141 10.1875 32.9141H14.5674ZM24.877 15.5518C24.4427 15.5518 24.0309 15.4694 23.6416 15.3047C23.2523 15.14 22.9079 14.9154 22.6084 14.6309C22.3239 14.3314 22.0993 13.987 21.9346 13.5977C21.7699 13.2083 21.6875 12.7965 21.6875 12.3623C21.6875 11.9131 21.7699 11.4938 21.9346 11.1045C22.0993 10.7152 22.3239 10.3783 22.6084 10.0938C22.9079 9.79427 23.2523 9.56217 23.6416 9.39746C24.0309 9.23275 24.4427 9.15039 24.877 9.15039C25.4759 9.15039 26.0225 9.30762 26.5166 9.62207C27.0107 9.92155 27.3926 10.3109 27.6621 10.79C27.9316 10.3109 28.3135 9.92155 28.8076 9.62207C29.3018 9.30762 29.8483 9.15039 30.4473 9.15039C30.8965 9.15039 31.3083 9.23275 31.6826 9.39746C32.0719 9.56217 32.4089 9.79427 32.6934 10.0938C32.9928 10.3783 33.2249 10.7152 33.3896 11.1045C33.5544 11.4938 33.6367 11.9131 33.6367 12.3623C33.6367 12.7965 33.5544 13.2083 33.3896 13.5977C33.2249 13.987 32.9928 14.3314 32.6934 14.6309C32.4089 14.9154 32.0719 15.14 31.6826 15.3047C31.3083 15.4694 30.8965 15.5518 30.4473 15.5518C29.8483 15.5518 29.3018 15.402 28.8076 15.1025C28.3135 14.7881 27.9316 14.3838 27.6621 13.8896C27.3926 14.3838 27.0107 14.7881 26.5166 15.1025C26.0225 15.402 25.4759 15.5518 24.877 15.5518ZM28.1787 3.06348C28.613 3.06348 29.0247 3.14583 29.4141 3.31055C29.8034 3.47526 30.1403 3.69987 30.4248 3.98438C30.7093 4.26888 30.9339 4.60579 31.0986 4.99512C31.2633 5.38444 31.3457 5.79622 31.3457 6.23047C31.3457 6.67969 31.2633 7.09896 31.0986 7.48828C30.9339 7.8776 30.7093 8.22201 30.4248 8.52148C30.1403 8.80599 29.8034 9.0306 29.4141 9.19531C29.0247 9.36003 28.613 9.44238 28.1787 9.44238C27.7445 9.44238 27.3327 9.36003 26.9434 9.19531C26.554 9.0306 26.2096 8.80599 25.9102 8.52148C25.6257 8.22201 25.401 7.8776 25.2363 7.48828C25.0716 7.09896 24.9893 6.67969 24.9893 6.23047C24.9893 5.79622 25.0716 5.38444 25.2363 4.99512C25.401 4.60579 25.6257 4.26888 25.9102 3.98438C26.2096 3.69987 26.554 3.47526 26.9434 3.31055C27.3327 3.14583 27.7445 3.06348 28.1787 3.06348ZM31.458 37.3164H27.8193L27.4824 41C27.4525 41.3743 27.3776 41.6514 27.2578 41.8311C27.153 42.0257 27.0107 42.2054 26.8311 42.3701H21.8223C22.0319 42.1006 22.1891 41.861 22.2939 41.6514C22.3838 41.4567 22.4437 41.2396 22.4736 41L24.3154 20.5605H29.2793L28.2012 32.9141H31.9072L31.458 37.3164ZM30.4473 32.9141H34.1309L35.2314 20.5605H40.2178L38.6904 37.3164H30.0879L30.4473 32.9141ZM38.2637 51.8262C38.2188 52.2754 38.0915 52.6947 37.8818 53.084C37.6722 53.4733 37.4027 53.8027 37.0732 54.0723C36.7438 54.3568 36.3919 54.5589 36.0176 54.6787C35.6582 54.7985 35.3063 54.8584 34.9619 54.8584C34.8571 54.8584 34.7448 54.8509 34.625 54.8359C34.1758 54.791 33.7565 54.6637 33.3672 54.4541C32.9779 54.2445 32.641 53.9749 32.3564 53.6455C32.0869 53.3311 31.8848 52.9867 31.75 52.6123C31.6302 52.2529 31.5703 51.901 31.5703 51.5566C31.5703 51.4368 31.5778 51.3245 31.5928 51.2197C31.6676 50.5908 31.8848 50.0368 32.2441 49.5576C32.6035 49.0785 33.0527 48.7191 33.5918 48.4795C33.1126 48.1351 32.7458 47.7158 32.4912 47.2217C32.2367 46.7275 32.1094 46.2334 32.1094 45.7393C32.1094 45.6195 32.1169 45.5072 32.1318 45.4023C32.1768 44.9382 32.304 44.5114 32.5137 44.1221C32.7233 43.7327 32.9928 43.4033 33.3223 43.1338C33.6517 42.8643 33.9961 42.6696 34.3555 42.5498C34.7298 42.43 35.0817 42.3701 35.4111 42.3701C35.5309 42.3701 35.6432 42.3776 35.748 42.3926C36.2122 42.4375 36.639 42.5648 37.0283 42.7744C37.4176 42.984 37.7471 43.2536 38.0166 43.583C38.3011 43.9124 38.5033 44.2568 38.623 44.6162C38.7428 44.9906 38.8027 45.3424 38.8027 45.6719C38.8027 45.7767 38.7952 45.889 38.7803 46.0088C38.7204 46.6377 38.5107 47.1917 38.1514 47.6709C37.792 48.1501 37.3428 48.5169 36.8037 48.7715C37.2829 49.1009 37.6497 49.5127 37.9043 50.0068C38.1589 50.501 38.2861 50.9951 38.2861 51.4893C38.2861 51.609 38.2786 51.7214 38.2637 51.8262ZM61.8027 37.3164L61.3311 42.3926H56.3672L56.6592 39.3379L56.8613 37.3389H52.3467C50.5648 37.3389 49.0225 37.1816 47.7197 36.8672C46.417 36.5378 45.3688 36.0137 44.5752 35.2949C43.8265 34.6211 43.3174 33.8125 43.0479 32.8691C42.7933 31.9108 42.666 30.9375 42.666 29.9492C42.666 29.4251 42.696 28.8711 42.7559 28.2871C42.9655 25.9212 43.4072 23.7275 44.0811 21.7061C44.7699 19.6846 45.7132 17.9551 46.9111 16.5176C47.9144 15.3197 49.1123 14.3838 50.5049 13.71C51.8975 13.0212 53.5221 12.6768 55.3789 12.6768C57.2207 12.6768 58.6657 12.9912 59.7139 13.6201C60.777 14.249 61.5482 15.11 62.0273 16.2031C62.3118 16.847 62.5215 17.5658 62.6562 18.3594C62.806 19.138 62.8958 19.8792 62.9258 20.583C62.9707 21.2718 62.9932 21.8783 62.9932 22.4023C62.9932 22.8366 62.9782 23.4206 62.9482 24.1543C62.9183 24.888 62.8509 25.7939 62.7461 26.8721L62.207 32.9141L61.8027 37.3164ZM57.2432 32.9141L57.4004 31.2295L57.8945 25.6816C58.0443 24.0195 58.1266 22.9189 58.1416 22.3799C58.1566 21.8408 58.1641 21.5189 58.1641 21.4141C58.1641 20.5905 58.0817 19.9242 57.917 19.415C57.7673 18.9059 57.5801 18.5016 57.3555 18.2021C57.1309 17.9027 56.8688 17.6781 56.5693 17.5283C56.2699 17.3786 55.918 17.2812 55.5137 17.2363C55.1243 17.1914 54.6751 17.1689 54.166 17.1689C53.3874 17.1689 52.6162 17.446 51.8525 18C51.0889 18.5391 50.4076 19.3252 49.8086 20.3584C49.3743 21.1221 48.985 22.013 48.6406 23.0312C48.3112 24.0345 48.0641 25.1426 47.8994 26.3555C47.8395 26.8796 47.8096 27.3737 47.8096 27.8379C47.8096 29.2454 48.1165 30.3535 48.7305 31.1621C49.1947 31.791 49.7637 32.2402 50.4375 32.5098C51.1263 32.7793 51.9349 32.9141 52.8633 32.9141H57.2432ZM104.905 37.3164C104.426 39.1432 103.782 40.7529 102.974 42.1455C102.18 43.5381 101.222 44.7585 100.099 45.8066C98.4665 47.334 96.5498 48.457 94.3486 49.1758C92.1475 49.9095 89.6992 50.2764 87.0039 50.2764C85.9707 50.2764 84.9375 50.2015 83.9043 50.0518C82.8861 49.902 81.8903 49.6549 80.917 49.3105C79.9587 48.9811 79.0378 48.5469 78.1543 48.0078C77.2858 47.4688 76.4847 46.8099 75.751 46.0312C74.598 44.8184 73.7295 43.4183 73.1455 41.8311C72.5765 40.2588 72.292 38.5817 72.292 36.7998C72.292 35.6468 72.3893 34.5163 72.584 33.4082C72.7936 32.3001 73.1081 31.237 73.5273 30.2188C73.9616 29.2005 74.5007 28.2422 75.1445 27.3438C75.8034 26.4303 76.582 25.5993 77.4805 24.8506C79.1725 23.4131 81.1715 22.3424 83.4775 21.6387C85.7835 20.9349 88.2767 20.583 90.957 20.583H98.167L97.7627 24.9854H89.6094C87.9323 24.9854 86.36 25.2549 84.8926 25.7939C83.4251 26.318 82.1299 27.0742 81.0068 28.0625C79.779 29.1406 78.8431 30.3984 78.1992 31.8359C77.5703 33.2585 77.2559 34.7858 77.2559 36.418C77.2559 37.8405 77.5029 39.1208 77.9971 40.2588C78.4912 41.3968 79.1875 42.3776 80.0859 43.2012C81.1191 44.1595 82.3096 44.8408 83.6572 45.2451C85.0049 45.6494 86.3675 45.8516 87.7451 45.8516C89.4222 45.8516 91.0394 45.5745 92.5967 45.0205C94.154 44.4814 95.5465 43.598 96.7744 42.3701C97.8076 41.3369 98.6686 40.0492 99.3574 38.5068C100.061 36.9645 100.518 35.1003 100.728 32.9141L101.851 20.583H106.837L105.736 32.9141H109.397L110.521 20.583H115.484L114.384 32.9141H118.045L119.168 20.583H124.132L123.031 32.9141L122.627 37.3164H104.905ZM110.902 15.5518C110.468 15.5518 110.056 15.4694 109.667 15.3047C109.278 15.14 108.933 14.9154 108.634 14.6309C108.349 14.3314 108.125 13.987 107.96 13.5977C107.795 13.2083 107.713 12.7965 107.713 12.3623C107.713 11.9131 107.795 11.4938 107.96 11.1045C108.125 10.7152 108.349 10.3783 108.634 10.0938C108.933 9.79427 109.278 9.56217 109.667 9.39746C110.056 9.23275 110.468 9.15039 110.902 9.15039C111.501 9.15039 112.048 9.30762 112.542 9.62207C113.036 9.92155 113.418 10.3109 113.688 10.79C113.957 10.3109 114.339 9.92155 114.833 9.62207C115.327 9.30762 115.874 9.15039 116.473 9.15039C116.922 9.15039 117.334 9.23275 117.708 9.39746C118.097 9.56217 118.434 9.79427 118.719 10.0938C119.018 10.3783 119.25 10.7152 119.415 11.1045C119.58 11.4938 119.662 11.9131 119.662 12.3623C119.662 12.7965 119.58 13.2083 119.415 13.5977C119.25 13.987 119.018 14.3314 118.719 14.6309C118.434 14.9154 118.097 15.14 117.708 15.3047C117.334 15.4694 116.922 15.5518 116.473 15.5518C115.874 15.5518 115.327 15.402 114.833 15.1025C114.339 14.7881 113.957 14.3838 113.688 13.8896C113.418 14.3838 113.036 14.7881 112.542 15.1025C112.048 15.402 111.501 15.5518 110.902 15.5518ZM114.204 3.06348C114.638 3.06348 115.05 3.14583 115.439 3.31055C115.829 3.47526 116.166 3.69987 116.45 3.98438C116.735 4.26888 116.959 4.60579 117.124 4.99512C117.289 5.38444 117.371 5.79622 117.371 6.23047C117.371 6.67969 117.289 7.09896 117.124 7.48828C116.959 7.8776 116.735 8.22201 116.45 8.52148C116.166 8.80599 115.829 9.0306 115.439 9.19531C115.05 9.36003 114.638 9.44238 114.204 9.44238C113.77 9.44238 113.358 9.36003 112.969 9.19531C112.579 9.0306 112.235 8.80599 111.936 8.52148C111.651 8.22201 111.426 7.8776 111.262 7.48828C111.097 7.09896 111.015 6.67969 111.015 6.23047C111.015 5.79622 111.097 5.38444 111.262 4.99512C111.426 4.60579 111.651 4.26888 111.936 3.98438C112.235 3.69987 112.579 3.47526 112.969 3.31055C113.358 3.14583 113.77 3.06348 114.204 3.06348ZM146.211 37.3164L145.739 42.3926H140.775L141.067 39.3379L141.27 37.3389H136.755C134.973 37.3389 133.431 37.1816 132.128 36.8672C130.825 36.5378 129.777 36.0137 128.983 35.2949C128.235 34.6211 127.726 33.8125 127.456 32.8691C127.201 31.9108 127.074 30.9375 127.074 29.9492C127.074 29.4251 127.104 28.8711 127.164 28.2871C127.374 25.9212 127.815 23.7275 128.489 21.7061C129.178 19.6846 130.121 17.9551 131.319 16.5176C132.323 15.3197 133.521 14.3838 134.913 13.71C136.306 13.0212 137.93 12.6768 139.787 12.6768C141.629 12.6768 143.074 12.9912 144.122 13.6201C145.185 14.249 145.956 15.11 146.436 16.2031C146.72 16.847 146.93 17.5658 147.064 18.3594C147.214 19.138 147.304 19.8792 147.334 20.583C147.379 21.2718 147.401 21.8783 147.401 22.4023C147.401 22.8366 147.386 23.4206 147.356 24.1543C147.326 24.888 147.259 25.7939 147.154 26.8721L146.615 32.9141L146.211 37.3164ZM141.651 32.9141L141.809 31.2295L142.303 25.6816C142.452 24.0195 142.535 22.9189 142.55 22.3799C142.565 21.8408 142.572 21.5189 142.572 21.4141C142.572 20.5905 142.49 19.9242 142.325 19.415C142.175 18.9059 141.988 18.5016 141.764 18.2021C141.539 17.9027 141.277 17.6781 140.978 17.5283C140.678 17.3786 140.326 17.2812 139.922 17.2363C139.533 17.1914 139.083 17.1689 138.574 17.1689C137.796 17.1689 137.024 17.446 136.261 18C135.497 18.5391 134.816 19.3252 134.217 20.3584C133.783 21.1221 133.393 22.013 133.049 23.0312C132.719 24.0345 132.472 25.1426 132.308 26.3555C132.248 26.8796 132.218 27.3737 132.218 27.8379C132.218 29.2454 132.525 30.3535 133.139 31.1621C133.603 31.791 134.172 32.2402 134.846 32.5098C135.535 32.7793 136.343 32.9141 137.271 32.9141H141.651ZM158.542 37.3164H154.903L154.566 41C154.536 41.3743 154.462 41.6514 154.342 41.8311C154.237 42.0257 154.095 42.2054 153.915 42.3701H148.906C149.116 42.1006 149.273 41.861 149.378 41.6514C149.468 41.4567 149.528 41.2396 149.558 41L151.399 20.5605H156.363L155.285 32.9141H158.991L158.542 37.3164ZM155.263 32.9141H167.818L167.414 37.3164H154.858L155.263 32.9141ZM162.54 32.9141H175.096L174.691 37.3164H162.136L162.54 32.9141ZM183.676 7.62305C183.212 7.62305 182.777 7.54069 182.373 7.37598C181.969 7.19629 181.609 6.95671 181.295 6.65723C180.995 6.34277 180.756 5.9834 180.576 5.5791C180.411 5.1748 180.329 4.74056 180.329 4.27637C180.329 3.81217 180.411 3.37793 180.576 2.97363C180.756 2.56934 180.995 2.21745 181.295 1.91797C181.609 1.61849 181.969 1.38639 182.373 1.22168C182.777 1.04199 183.212 0.952148 183.676 0.952148C184.14 0.952148 184.574 1.04199 184.979 1.22168C185.383 1.38639 185.735 1.61849 186.034 1.91797C186.334 2.21745 186.573 2.56934 186.753 2.97363C186.933 3.37793 187.022 3.81217 187.022 4.27637C187.022 4.74056 186.933 5.1748 186.753 5.5791C186.573 5.9834 186.334 6.34277 186.034 6.65723C185.735 6.95671 185.383 7.19629 184.979 7.37598C184.574 7.54069 184.14 7.62305 183.676 7.62305ZM184.013 24.8057L184.17 22.9863C184.245 22.1777 184.32 21.4665 184.395 20.8525C184.469 20.2386 184.507 19.7145 184.507 19.2803C184.507 19.1904 184.499 19.0107 184.484 18.7412C184.484 18.4567 184.395 18.1797 184.215 17.9102C184.035 17.6406 183.728 17.4909 183.294 17.4609H183.137C182.702 17.4609 182.283 17.5807 181.879 17.8203C181.475 18.0449 181.108 18.3594 180.778 18.7637C180.449 19.168 180.172 19.6247 179.947 20.1338C179.723 20.6429 179.58 21.1445 179.521 21.6387C179.491 21.8783 179.476 22.1104 179.476 22.335C179.476 22.4847 179.483 22.6868 179.498 22.9414C179.528 23.181 179.648 23.4505 179.857 23.75C180.142 24.1243 180.486 24.3939 180.891 24.5586C181.295 24.7233 181.774 24.8057 182.328 24.8057H184.013ZM183.227 32.9141L183.406 31.2295L183.608 29.208H183.159C181.677 29.208 180.367 29.0957 179.229 28.8711C178.09 28.6465 177.155 28.2422 176.421 27.6582C175.687 27.0592 175.186 26.333 174.916 25.4795C174.646 24.626 174.512 23.735 174.512 22.8066C174.512 22.3424 174.542 21.8408 174.602 21.3018C174.706 20.1188 175.028 19.0033 175.567 17.9551C176.106 16.9069 176.788 15.9935 177.611 15.2148C178.435 14.4212 179.371 13.7923 180.419 13.3281C181.467 12.8639 182.56 12.6318 183.698 12.6318C184.701 12.6318 185.57 12.8639 186.304 13.3281C187.052 13.7923 187.659 14.4362 188.123 15.2598C188.602 16.0684 188.909 16.9219 189.044 17.8203C189.194 18.7038 189.269 19.5199 189.269 20.2686C189.269 20.7627 189.246 21.2718 189.201 21.7959L188.64 27.8379L187.764 37.3164H171.727L172.131 32.9141H183.227Z" fill="#9D2626"/>
<path d="M5.02148 36.8447L4.30983 39.7591L4.31756 39.761L5.02148 36.8447ZM1.92188 35.2949L3.95672 33.0905L3.93198 33.0677L3.90674 33.0454L1.92188 35.2949ZM0.37207 32.8691L-2.52739 33.6393L-2.5202 33.6664L-2.5125 33.6933L0.37207 32.8691ZM0.0800781 28.2871L3.06442 28.5932L3.06654 28.5726L3.06837 28.5519L0.0800781 28.2871ZM1.40527 21.7061L-1.4344 20.7385L-1.43762 20.7479L-1.44078 20.7574L1.40527 21.7061ZM4.23535 16.5176L6.54003 18.4381L6.54702 18.4297L4.23535 16.5176ZM17.0381 13.6201L15.4946 16.1926L15.5026 16.1974L15.5107 16.2022L17.0381 13.6201ZM19.3516 16.2031L16.6039 17.4076L16.6075 17.4156L19.3516 16.2031ZM19.9805 18.3369L17.0244 18.8485L17.0292 18.876L17.0344 18.9035L19.9805 18.3369ZM20.25 20.5605L17.2527 20.6881L17.2542 20.722L17.2564 20.7558L20.25 20.5605ZM20.0703 26.8496L17.0844 26.5593L17.0834 26.5698L17.0824 26.5803L20.0703 26.8496ZM19.127 37.3164V40.3164H21.8687L22.1148 37.5857L19.127 37.3164ZM14.5674 32.9141V35.9141H17.3004L17.5544 33.1929L14.5674 32.9141ZM14.7246 31.2295L17.7117 31.5083L17.7129 31.4946L14.7246 31.2295ZM15.2188 25.6592L12.2311 25.3876L12.2305 25.3941L15.2188 25.6592ZM14.6572 18.2021L12.1995 19.9225L12.2277 19.9628L12.2572 20.0021L14.6572 18.2021ZM13.8711 17.5283L12.4253 20.157L12.5021 20.1992L12.5813 20.2369L13.8711 17.5283ZM9.17676 17.9775L10.9384 20.4058L9.17676 17.9775ZM7.13281 20.3584L9.72791 21.8636L9.72823 21.863L7.13281 20.3584ZM5.96484 23.0088L8.80234 23.9829L8.80669 23.97L5.96484 23.0088ZM5.22363 26.333L2.24624 25.9654L2.24458 25.9789L2.24303 25.9924L5.22363 26.333ZM6.05469 31.1621L8.46841 29.3806L8.45633 29.3642L8.44403 29.348L6.05469 31.1621ZM7.76172 32.5098L6.64755 35.2952L6.65802 35.2994L6.66852 35.3035L7.76172 32.5098ZM9.6709 34.3164C8.0363 34.3164 6.73475 34.1721 5.72541 33.9285L4.31756 39.761C5.91369 40.1462 7.71175 40.3164 9.6709 40.3164V34.3164ZM5.73313 33.9304C4.81742 33.7068 4.27903 33.388 3.95672 33.0905L-0.112965 37.4993C1.12201 38.6393 2.65002 39.3538 4.30984 39.7591L5.73313 33.9304ZM3.90674 33.0454C3.55578 32.7357 3.36245 32.4153 3.25664 32.045L-2.5125 33.6933C-2.07925 35.2097 -1.23937 36.5065 -0.06299 37.5444L3.90674 33.0454ZM3.27153 32.099C3.08349 31.3911 2.99023 30.6766 2.99023 29.9492H-3.00977C-3.00977 31.1984 -2.84846 32.4305 -2.52739 33.6393L3.27153 32.099ZM2.99023 29.9492C2.99023 29.5386 3.01374 29.0874 3.06442 28.5932L-2.90427 27.981C-2.97337 28.6548 -3.00977 29.3116 -3.00977 29.9492H2.99023ZM3.06837 28.5519C3.2597 26.3925 3.65925 24.4309 4.25132 22.6547L-1.44078 20.7574C-2.19636 23.0241 -2.68028 25.4499 -2.90821 28.0223L3.06837 28.5519ZM4.24495 22.6736C4.83183 20.9513 5.60806 19.5565 6.54002 18.4381L1.93069 14.597C0.466808 16.3537 -0.643682 18.4179 -1.4344 20.7385L4.24495 22.6736ZM6.54702 18.4297C7.2807 17.5427 8.13783 16.8709 9.13578 16.388L6.52242 10.987C4.73522 11.8518 3.19652 13.0667 1.92369 14.6055L6.54702 18.4297ZM9.13578 16.388C10.0474 15.9469 11.2095 15.6768 12.7031 15.6768V9.67676C10.4832 9.67676 8.39592 10.0805 6.52242 10.987L9.13578 16.388ZM12.7031 15.6768C14.2567 15.6768 15.0915 15.9508 15.4946 16.1926L18.5816 11.0476C16.8883 10.0317 14.8332 9.67676 12.7031 9.67676V15.6768ZM15.5107 16.2022C16.053 16.523 16.3864 16.9113 16.604 17.4076L22.0992 14.9987C21.3584 13.3088 20.1495 11.9751 18.5655 11.0381L15.5107 16.2022ZM16.6075 17.4156C16.7818 17.81 16.9264 18.2823 17.0244 18.8485L22.9365 17.8253C22.765 16.8343 22.4904 15.884 22.0956 14.9906L16.6075 17.4156ZM17.0344 18.9035C17.1597 19.5549 17.2298 20.1487 17.2527 20.6881L23.2473 20.433C23.2103 19.5649 23.1007 18.6762 22.9265 17.7704L17.0344 18.9035ZM17.2564 20.7558C17.2983 21.3986 17.3174 21.9375 17.3174 22.3799H23.3174C23.3174 21.774 23.2916 21.1001 23.2436 20.3653L17.2564 20.7558ZM17.3174 22.3799C17.3174 22.7551 17.3042 23.2929 17.275 24.0095L23.27 24.2542C23.3006 23.5033 23.3174 22.8732 23.3174 22.3799H17.3174ZM17.275 24.0095C17.2481 24.6677 17.1861 25.5135 17.0844 26.5593L23.0562 27.1399C23.1642 26.0294 23.2369 25.0635 23.27 24.2542L17.275 24.0095ZM17.0824 26.5803L16.1391 37.0471L22.1148 37.5857L23.0582 27.1189L17.0824 26.5803ZM19.127 34.3164H9.6709V40.3164H19.127V34.3164ZM17.5544 33.1929L17.7116 31.5083L11.7376 30.9507L11.5804 32.6353L17.5544 33.1929ZM17.7129 31.4946L18.207 25.9243L12.2305 25.3941L11.7363 30.9644L17.7129 31.4946ZM18.2064 25.9308C18.3546 24.3009 18.4466 23.1128 18.4647 22.4632L12.467 22.2966C12.4551 22.7251 12.3824 23.7232 12.2311 25.3876L18.2064 25.9308ZM18.4647 22.4632C18.479 21.9464 18.4883 21.5715 18.4883 21.4141H12.4883C12.4883 21.4128 12.4882 21.4309 12.4873 21.4808C12.4865 21.5263 12.4853 21.5871 12.4835 21.6644C12.4799 21.8188 12.4744 22.029 12.467 22.2966L18.4647 22.4632ZM18.4883 21.4141C18.4883 20.4269 18.3941 19.4143 18.0955 18.4916L12.3869 20.3385C12.4178 20.434 12.4883 20.7541 12.4883 21.4141H18.4883ZM18.0955 18.4916C17.8689 17.791 17.546 17.0539 17.0572 16.4021L12.2572 20.0021C12.2322 19.9688 12.2398 19.9715 12.2687 20.0314C12.2971 20.0905 12.3387 20.1894 12.3869 20.3385L18.0955 18.4916ZM17.1149 16.4818C16.6233 15.7794 15.9671 15.2036 15.1609 14.8197L12.5813 20.2369C12.5018 20.1991 12.4228 20.1483 12.3511 20.0869C12.28 20.0259 12.2306 19.9669 12.1995 19.9225L17.1149 16.4818ZM15.3169 14.8997C14.6301 14.5219 13.9015 14.3167 13.1818 14.2336L12.494 20.1941C12.5248 20.1976 12.5298 20.2008 12.5147 20.1962C12.4988 20.1914 12.4669 20.1798 12.4253 20.157L15.3169 14.8997ZM13.1818 14.2336C12.6505 14.1723 12.0823 14.1465 11.4902 14.1465V20.1465C11.9164 20.1465 12.2467 20.1656 12.494 20.1941L13.1818 14.2336ZM11.4902 14.1465C9.95444 14.1465 8.58023 14.704 7.41508 15.5493L10.9384 20.4058C11.3006 20.143 11.4687 20.1465 11.4902 20.1465V14.1465ZM7.41508 15.5493C6.23453 16.4057 5.29268 17.5509 4.53739 18.8538L9.72823 21.863C10.1709 21.0995 10.5916 20.6574 10.9384 20.4058L7.41508 15.5493ZM4.53772 18.8532C3.98274 19.8101 3.5167 20.8836 3.123 22.0476L8.80669 23.97C9.10179 23.0975 9.4144 22.4041 9.72791 21.8636L4.53772 18.8532ZM3.12738 22.0347C2.70614 23.2618 2.4177 24.5765 2.24624 25.9654L8.20103 26.7006C8.32904 25.6637 8.53474 24.7623 8.80231 23.9828L3.12738 22.0347ZM2.24303 25.9924C2.17192 26.6146 2.13379 27.2233 2.13379 27.8154H8.13379C8.13379 27.4792 8.15555 27.0996 8.20423 26.6736L2.24303 25.9924ZM2.13379 27.8154C2.13379 29.6364 2.52389 31.4729 3.66535 32.9762L8.44403 29.348C8.35762 29.2342 8.13379 28.8395 8.13379 27.8154H2.13379ZM3.64097 32.9437C4.40999 33.9856 5.41559 34.8024 6.64755 35.2952L8.87589 29.7243C8.76019 29.6781 8.62777 29.5965 8.46841 29.3806L3.64097 32.9437ZM6.66852 35.3035C7.78201 35.7392 8.97684 35.9141 10.1875 35.9141V29.9141C9.54139 29.9141 9.11904 29.8194 8.85492 29.716L6.66852 35.3035ZM10.1875 35.9141H14.5674V29.9141H10.1875V35.9141ZM22.6084 14.6309L20.4334 16.6971L20.4864 16.7529L20.5422 16.8059L22.6084 14.6309ZM22.6084 10.0938L20.4871 7.97243L22.6084 10.0938ZM26.5166 9.62207L24.906 12.1531L24.9336 12.1707L24.9617 12.1877L26.5166 9.62207ZM27.6621 10.79L25.0474 12.2608L27.6621 16.9092L30.2768 12.2608L27.6621 10.79ZM28.8076 9.62207L30.3625 12.1877L30.3906 12.1707L30.4182 12.1531L28.8076 9.62207ZM31.6826 9.39746L30.4744 12.1434L30.494 12.152L30.5137 12.1604L31.6826 9.39746ZM32.6934 10.0938L30.5184 12.16L30.5713 12.2158L30.6271 12.2687L32.6934 10.0938ZM32.6934 14.6309L30.572 12.5095L32.6934 14.6309ZM31.6826 15.3047L30.5137 12.5418L30.494 12.5501L30.4744 12.5587L31.6826 15.3047ZM28.8076 15.1025L27.197 17.6335L27.2247 17.6511L27.2527 17.6681L28.8076 15.1025ZM27.6621 13.8896L30.2958 12.4531L27.6621 7.62467L25.0284 12.4531L27.6621 13.8896ZM26.5166 15.1025L28.0715 17.6681L28.0996 17.6511L28.1272 17.6335L26.5166 15.1025ZM30.4248 8.52148L32.5461 10.6428L32.5733 10.6156L32.5998 10.5877L30.4248 8.52148ZM25.9102 8.52148L23.7352 10.5877L23.7881 10.6435L23.8439 10.6965L25.9102 8.52148ZM25.2363 7.48828L22.4734 8.6572L25.2363 7.48828ZM25.2363 4.99512L22.4734 3.8262L25.2363 4.99512ZM25.9102 3.98438L23.8439 1.80938L23.816 1.83586L23.7888 1.86305L25.9102 3.98438ZM31.458 37.3164V40.3164H34.1675L34.4425 37.6209L31.458 37.3164ZM27.8193 37.3164V34.3164H25.0812L24.8318 37.0432L27.8193 37.3164ZM27.4824 41L24.4949 40.7267L24.4933 40.7437L24.492 40.7608L27.4824 41ZM27.2578 41.8311L24.7617 40.167L24.6833 40.2844L24.6164 40.4088L27.2578 41.8311ZM26.8311 42.3701V45.3701H27.998L28.8582 44.5816L26.8311 42.3701ZM21.8223 42.3701L19.4542 40.5283L15.6883 45.3701H21.8223V42.3701ZM22.2939 41.6514L24.9772 42.993L24.9982 42.9511L25.0178 42.9085L22.2939 41.6514ZM22.4736 41L25.4505 41.3721L25.4569 41.3208L25.4615 41.2692L22.4736 41ZM24.3154 20.5605V17.5605H21.5736L21.3275 20.2913L24.3154 20.5605ZM29.2793 20.5605L32.2679 20.8214L32.5525 17.5605H29.2793V20.5605ZM28.2012 32.9141L25.2125 32.6532L24.9279 35.9141H28.2012V32.9141ZM31.9072 32.9141L34.8917 33.2186L35.2289 29.9141H31.9072V32.9141ZM24.877 12.5518C24.8331 12.5518 24.8198 12.5457 24.8105 12.5418L22.4727 18.0676C23.242 18.3931 24.0523 18.5518 24.877 18.5518V12.5518ZM24.8105 12.5418C24.7453 12.5142 24.7066 12.4862 24.6746 12.4559L20.5422 16.8059C21.1091 17.3445 21.7593 17.7658 22.4727 18.0676L24.8105 12.5418ZM24.7834 12.5646C24.753 12.5326 24.7251 12.494 24.6975 12.4287L19.1717 14.7666C19.4735 15.48 19.8948 16.1301 20.4334 16.6971L24.7834 12.5646ZM24.6975 12.4287C24.6935 12.4194 24.6875 12.4062 24.6875 12.3623H18.6875C18.6875 13.1869 18.8462 13.9972 19.1717 14.7666L24.6975 12.4287ZM24.6875 12.3623C24.6875 12.3219 24.6911 12.2989 24.693 12.2892C24.6948 12.2799 24.6964 12.2759 24.6975 12.2734L19.1717 9.93557C18.8408 10.7175 18.6875 11.537 18.6875 12.3623H24.6875ZM24.6975 12.2734C24.7098 12.2442 24.7191 12.2293 24.7227 12.2239C24.7261 12.2188 24.7281 12.2167 24.7297 12.2151L20.4871 7.97243C19.9157 8.54384 19.4792 9.20873 19.1717 9.93557L24.6975 12.2734ZM24.7297 12.2151C24.7565 12.1883 24.7777 12.1742 24.8105 12.1604L22.4727 6.63456C21.7269 6.9501 21.0592 7.40029 20.4871 7.97243L24.7297 12.2151ZM24.8105 12.1604C24.8198 12.1564 24.8331 12.1504 24.877 12.1504V6.15039C24.0523 6.15039 23.242 6.30907 22.4727 6.63456L24.8105 12.1604ZM24.877 12.1504C24.8951 12.1504 24.9052 12.1516 24.9084 12.152C24.9115 12.1524 24.9105 12.1525 24.9067 12.1514C24.9029 12.1503 24.8996 12.149 24.8977 12.1482C24.896 12.1474 24.8986 12.1484 24.906 12.1531L28.1272 7.09109C27.1404 6.46307 26.0328 6.15039 24.877 6.15039V12.1504ZM24.9617 12.1877C25.0072 12.2152 25.0264 12.2338 25.0318 12.2393C25.0365 12.2442 25.0408 12.2492 25.0474 12.2608L30.2768 9.31925C29.7411 8.36678 28.9839 7.60943 28.0715 7.05648L24.9617 12.1877ZM30.2768 12.2608C30.2834 12.2492 30.2877 12.2442 30.2924 12.2393C30.2978 12.2338 30.317 12.2152 30.3625 12.1877L27.2527 7.05648C26.3403 7.60943 25.5831 8.36678 25.0474 9.31925L30.2768 12.2608ZM30.4182 12.1531C30.4256 12.1484 30.4283 12.1474 30.4265 12.1482C30.4247 12.149 30.4213 12.1503 30.4175 12.1514C30.4137 12.1525 30.4127 12.1524 30.4158 12.152C30.4191 12.1516 30.4291 12.1504 30.4473 12.1504V6.15039C29.2914 6.15039 28.1839 6.46307 27.197 7.09109L30.4182 12.1531ZM30.4473 12.1504C30.4679 12.1504 30.4824 12.1513 30.4915 12.1522C30.4961 12.1526 30.4994 12.1531 30.5015 12.1534C30.5036 12.1537 30.5046 12.1539 30.5047 12.1539C30.5047 12.1539 30.5038 12.1537 30.5022 12.1533C30.5005 12.1529 30.4982 12.1523 30.4954 12.1513C30.4894 12.1495 30.4823 12.1469 30.4744 12.1434L32.8908 6.65152C32.0997 6.30342 31.2712 6.15039 30.4473 6.15039V12.1504ZM30.5137 12.1604C30.5211 12.1635 30.525 12.1656 30.5263 12.1663C30.5276 12.167 30.5271 12.1668 30.5254 12.1656C30.5237 12.1644 30.5218 12.163 30.52 12.1615C30.5183 12.16 30.5177 12.1593 30.5184 12.16L34.8684 8.0275C34.2932 7.42206 33.6114 6.95604 32.8515 6.63456L30.5137 12.1604ZM30.6271 12.2687C30.6278 12.2694 30.6271 12.2688 30.6256 12.2671C30.6242 12.2653 30.6227 12.2634 30.6215 12.2617C30.6203 12.26 30.6201 12.2595 30.6208 12.2608C30.6215 12.2621 30.6236 12.2661 30.6267 12.2734L36.1525 9.93557C35.8311 9.1757 35.3651 8.49392 34.7596 7.91875L30.6271 12.2687ZM30.6267 12.2734C30.6278 12.2759 30.6294 12.2799 30.6312 12.2892C30.6331 12.2989 30.6367 12.3219 30.6367 12.3623H36.6367C36.6367 11.537 36.4834 10.7175 36.1525 9.93557L30.6267 12.2734ZM30.6367 12.3623C30.6367 12.4062 30.6307 12.4194 30.6267 12.4287L36.1525 14.7666C36.478 13.9972 36.6367 13.1869 36.6367 12.3623H30.6367ZM30.6267 12.4287C30.6129 12.4616 30.5989 12.4827 30.572 12.5095L34.8147 16.7522C35.3868 16.18 35.837 15.5124 36.1525 14.7666L30.6267 12.4287ZM30.572 12.5095C30.5704 12.5112 30.5683 12.5131 30.5632 12.5165C30.5578 12.5202 30.5429 12.5294 30.5137 12.5418L32.8515 18.0676C33.5784 17.7601 34.2433 17.3236 34.8147 16.7522L30.572 12.5095ZM30.4744 12.5587C30.4823 12.5553 30.4894 12.5527 30.4954 12.5508C30.4982 12.5499 30.5005 12.5493 30.5022 12.5488C30.5038 12.5484 30.5047 12.5482 30.5047 12.5482C30.5046 12.5483 30.5036 12.5485 30.5015 12.5488C30.4994 12.5491 30.4961 12.5495 30.4915 12.5499C30.4824 12.5508 30.4679 12.5518 30.4473 12.5518V18.5518C31.2712 18.5518 32.0997 18.3987 32.8908 18.0506L30.4744 12.5587ZM30.4473 12.5518C30.4004 12.5518 30.3815 12.5463 30.3808 12.5461C30.3794 12.5457 30.3784 12.5453 30.377 12.5447C30.3755 12.5441 30.3708 12.542 30.3625 12.5369L27.2527 17.6681C28.2334 18.2625 29.3211 18.5518 30.4473 18.5518V12.5518ZM30.4182 12.5716C30.3341 12.518 30.3123 12.4834 30.2958 12.4531L25.0284 15.3262C25.551 16.2842 26.2928 17.0581 27.197 17.6335L30.4182 12.5716ZM25.0284 12.4531C25.0119 12.4834 24.9901 12.518 24.906 12.5716L28.1272 17.6335C29.0314 17.0581 29.7732 16.2842 30.2958 15.3262L25.0284 12.4531ZM24.9617 12.5369C24.9534 12.542 24.9487 12.5441 24.9472 12.5447C24.9458 12.5453 24.9448 12.5457 24.9434 12.5461C24.9427 12.5463 24.9239 12.5518 24.877 12.5518V18.5518C26.0031 18.5518 27.0908 18.2625 28.0715 17.6681L24.9617 12.5369ZM28.1787 6.06348C28.2226 6.06348 28.2358 6.06951 28.2451 6.07345L30.583 0.547645C29.8136 0.222155 29.0033 0.0634766 28.1787 0.0634766V6.06348ZM28.2451 6.07345C28.2743 6.0858 28.2892 6.09508 28.2946 6.09869C28.2998 6.10211 28.3018 6.10403 28.3035 6.1057L32.5461 1.86305C31.9747 1.29165 31.3098 0.855154 30.583 0.547645L28.2451 6.07345ZM28.3035 6.1057C28.3051 6.10736 28.3071 6.1094 28.3105 6.11454C28.3141 6.11995 28.3234 6.13485 28.3357 6.16404L33.8615 3.8262C33.554 3.09936 33.1175 2.43446 32.5461 1.86305L28.3035 6.1057ZM28.3357 6.16404C28.3397 6.17334 28.3457 6.18661 28.3457 6.23047H34.3457C34.3457 5.40584 34.187 4.59554 33.8615 3.8262L28.3357 6.16404ZM28.3457 6.23047C28.3457 6.27087 28.3421 6.29392 28.3402 6.3036C28.3384 6.31283 28.3368 6.31689 28.3357 6.31936L33.8615 8.6572C34.1924 7.87523 34.3457 7.05574 34.3457 6.23047H28.3457ZM28.3357 6.31936C28.3081 6.38459 28.2802 6.42327 28.2498 6.45524L32.5998 10.5877C33.1384 10.0207 33.5597 9.37062 33.8615 8.6572L28.3357 6.31936ZM28.3035 6.40016C28.3018 6.40183 28.2998 6.40375 28.2946 6.40717C28.2892 6.41078 28.2743 6.42006 28.2451 6.43241L30.583 11.9582C31.3098 11.6507 31.9747 11.2142 32.5461 10.6428L28.3035 6.40016ZM28.2451 6.43241C28.2358 6.43635 28.2226 6.44238 28.1787 6.44238V12.4424C29.0033 12.4424 29.8136 12.2837 30.583 11.9582L28.2451 6.43241ZM28.1787 6.44238C28.1349 6.44238 28.1216 6.43635 28.1123 6.43241L25.7744 11.9582C26.5438 12.2837 27.3541 12.4424 28.1787 12.4424V6.44238ZM28.1123 6.43241C28.0471 6.40481 28.0084 6.37686 27.9764 6.34649L23.8439 10.6965C24.4109 11.2351 25.061 11.6564 25.7744 11.9582L28.1123 6.43241ZM28.0852 6.45524C28.0548 6.42327 28.0268 6.38459 27.9992 6.31936L22.4734 8.6572C22.7753 9.37062 23.1965 10.0207 23.7352 10.5877L28.0852 6.45524ZM27.9992 6.31936C27.9982 6.31689 27.9966 6.31283 27.9948 6.3036C27.9929 6.29392 27.9893 6.27087 27.9893 6.23047H21.9893C21.9893 7.05574 22.1426 7.87523 22.4734 8.6572L27.9992 6.31936ZM27.9893 6.23047C27.9893 6.18661 27.9953 6.17334 27.9992 6.16404L22.4734 3.8262C22.1479 4.59554 21.9893 5.40584 21.9893 6.23047H27.9893ZM27.9992 6.16404C28.0116 6.13485 28.0209 6.11995 28.0245 6.11454C28.0279 6.1094 28.0298 6.10736 28.0315 6.1057L23.7888 1.86305C23.2174 2.43446 22.7809 3.09936 22.4734 3.8262L27.9992 6.16404ZM27.9764 6.15937C28.0084 6.129 28.0471 6.10104 28.1123 6.07345L25.7744 0.547645C25.061 0.849476 24.4109 1.27074 23.8439 1.80938L27.9764 6.15937ZM28.1123 6.07345C28.1216 6.06951 28.1349 6.06348 28.1787 6.06348V0.0634766C27.3541 0.0634766 26.5438 0.222155 25.7744 0.547645L28.1123 6.07345ZM31.458 34.3164H27.8193V40.3164H31.458V34.3164ZM24.8318 37.0432L24.4949 40.7267L30.47 41.2733L30.8069 37.5897L24.8318 37.0432ZM24.492 40.7608C24.4875 40.817 24.485 40.7898 24.5077 40.7058C24.5289 40.6274 24.5932 40.4196 24.7617 40.167L29.754 43.4952C30.2958 42.6824 30.4283 41.7962 30.4729 41.2392L24.492 40.7608ZM24.6164 40.4088C24.6862 40.2791 24.7614 40.1976 24.8039 40.1587L28.8582 44.5816C29.2601 44.2132 29.6198 43.7723 29.8992 43.2534L24.6164 40.4088ZM26.8311 39.3701H21.8223V45.3701H26.8311V39.3701ZM24.1903 44.2119C24.4716 43.8503 24.754 43.4394 24.9772 42.993L19.6107 40.3097C19.6206 40.2898 19.6172 40.2998 19.5893 40.3423C19.5621 40.3837 19.5187 40.4453 19.4542 40.5283L24.1903 44.2119ZM25.0178 42.9085C25.2522 42.4008 25.387 41.8799 25.4505 41.3721L19.4968 40.6279C19.5004 40.5993 19.5154 40.5126 19.5701 40.3942L25.0178 42.9085ZM25.4615 41.2692L27.3033 20.8298L21.3275 20.2913L19.4857 40.7308L25.4615 41.2692ZM24.3154 23.5605H29.2793V17.5605H24.3154V23.5605ZM26.2907 20.2997L25.2125 32.6532L31.1898 33.1749L32.2679 20.8214L26.2907 20.2997ZM28.2012 35.9141H31.9072V29.9141H28.2012V35.9141ZM28.9227 32.6095L28.4735 37.0119L34.4425 37.6209L34.8917 33.2186L28.9227 32.6095ZM30.4473 32.9141V29.9141H27.6822L27.4572 32.67L30.4473 32.9141ZM34.1309 32.9141V35.9141H36.8755L37.119 33.1803L34.1309 32.9141ZM35.2314 20.5605V17.5605H32.4868L32.2433 20.2943L35.2314 20.5605ZM40.2178 20.5605L43.2054 20.8329L43.5037 17.5605H40.2178V20.5605ZM38.6904 37.3164V40.3164H41.4294L41.678 37.5887L38.6904 37.3164ZM30.0879 37.3164L27.0978 37.0723L26.833 40.3164H30.0879V37.3164ZM38.2637 51.8262L35.2938 51.4019L35.2849 51.4646L35.2786 51.5277L38.2637 51.8262ZM37.0732 54.0723L35.1735 51.7504L35.1426 51.7757L35.1124 51.8018L37.0732 54.0723ZM36.0176 54.6787L35.1033 51.8214L35.086 51.8269L35.0689 51.8327L36.0176 54.6787ZM34.625 54.8359L34.9971 51.8591L34.9604 51.8545L34.9235 51.8508L34.625 54.8359ZM32.3564 53.6455L30.0787 55.5979L30.086 55.6064L32.3564 53.6455ZM31.75 52.6123L28.9039 53.561L28.9152 53.5949L28.9273 53.6285L31.75 52.6123ZM31.5928 51.2197L34.5626 51.644L34.5676 51.6092L34.5717 51.5744L31.5928 51.2197ZM33.5918 48.4795L34.8102 51.2209L39.5903 49.0964L35.3427 46.0434L33.5918 48.4795ZM32.1318 45.4023L35.1017 45.8266L35.1113 45.7591L35.1179 45.6913L32.1318 45.4023ZM32.5137 44.1221L29.8723 42.6998L32.5137 44.1221ZM34.3555 42.5498L33.4411 39.6925L33.4239 39.698L33.4068 39.7038L34.3555 42.5498ZM35.748 42.3926L35.3238 45.3624L35.3912 45.3721L35.4591 45.3786L35.748 42.3926ZM37.0283 42.7744L38.4506 40.133L37.0283 42.7744ZM38.0166 43.583L35.6947 45.4827L35.72 45.5136L35.7461 45.5439L38.0166 43.583ZM38.623 44.6162L41.4803 43.7019L41.4748 43.6847L41.4691 43.6675L38.623 44.6162ZM38.7803 46.0088L35.8034 45.6367L35.798 45.6805L35.7938 45.7244L38.7803 46.0088ZM36.8037 48.7715L35.5227 46.0587L30.8038 48.2871L35.1041 51.2436L36.8037 48.7715ZM30.4473 35.9141H34.1309V29.9141H30.4473V35.9141ZM37.119 33.1803L38.2196 20.8268L32.2433 20.2943L31.1427 32.6478L37.119 33.1803ZM35.2314 23.5605H40.2178V17.5605H35.2314V23.5605ZM37.2302 20.2882L35.7028 37.0441L41.678 37.5887L43.2054 20.8329L37.2302 20.2882ZM38.6904 34.3164H30.0879V40.3164H38.6904V34.3164ZM33.0779 37.5605L33.4373 33.1581L27.4572 32.67L27.0978 37.0723L33.0779 37.5605ZM35.2786 51.5277C35.2722 51.5918 35.2585 51.628 35.2404 51.6617L40.5233 54.5063C40.9244 53.7613 41.1653 52.959 41.2488 52.1247L35.2786 51.5277ZM35.2404 51.6617C35.2094 51.7192 35.1875 51.739 35.1735 51.7504L38.973 56.3941C39.6179 55.8665 40.135 55.2274 40.5233 54.5063L35.2404 51.6617ZM35.1124 51.8018C35.0819 51.8281 35.0667 51.8366 35.0679 51.8359C35.0683 51.8357 35.0718 51.8337 35.0783 51.8308C35.0849 51.8279 35.0933 51.8246 35.1033 51.8214L36.9319 57.536C37.7305 57.2804 38.4319 56.8628 39.0341 56.3427L35.1124 51.8018ZM35.0689 51.8327C34.985 51.8606 34.9533 51.8584 34.9619 51.8584V57.8584C35.6593 57.8584 36.3314 57.7364 36.9663 57.5248L35.0689 51.8327ZM34.9619 51.8584C34.9807 51.8584 34.9932 51.8591 34.9986 51.8594C35.0041 51.8598 35.0037 51.8599 34.9971 51.8591L34.2529 57.8128C34.478 57.8409 34.7157 57.8584 34.9619 57.8584V51.8584ZM34.9235 51.8508C34.8594 51.8444 34.8231 51.8308 34.7895 51.8127L31.9449 57.0955C32.6899 57.4967 33.4921 57.7376 34.3265 57.821L34.9235 51.8508ZM34.7895 51.8127C34.7168 51.7735 34.6687 51.733 34.6269 51.6846L30.086 55.6064C30.6132 56.2169 31.239 56.7154 31.9449 57.0955L34.7895 51.8127ZM34.6342 51.6931C34.5918 51.6436 34.5791 51.614 34.5727 51.5961L28.9273 53.6285C29.1904 54.3593 29.5821 55.0185 30.0787 55.5979L34.6342 51.6931ZM34.5961 51.6636C34.5681 51.5798 34.5703 51.548 34.5703 51.5566H28.5703C28.5703 52.254 28.6923 52.9261 28.9039 53.561L34.5961 51.6636ZM34.5703 51.5566C34.5703 51.5607 34.5701 51.5914 34.5626 51.644L28.6229 50.7955C28.5855 51.0577 28.5703 51.313 28.5703 51.5566H34.5703ZM34.5717 51.5744C34.5879 51.4385 34.62 51.3898 34.6441 51.3576L29.8441 47.7576C29.1496 48.6837 28.7474 49.7431 28.6138 50.8651L34.5717 51.5744ZM34.6441 51.3576C34.7013 51.2813 34.7463 51.2493 34.8102 51.2209L32.3734 45.7381C31.3591 46.1888 30.5057 46.8756 29.8441 47.7576L34.6441 51.3576ZM35.3427 46.0434C35.2242 45.9582 35.1822 45.8946 35.1581 45.8478L29.8243 48.5956C30.3093 49.537 31.0011 50.3119 31.8409 50.9155L35.3427 46.0434ZM35.1581 45.8478C35.1243 45.7822 35.1131 45.7442 35.11 45.7322C35.1073 45.7215 35.1094 45.7258 35.1094 45.7393H29.1094C29.1094 46.7683 29.3785 47.7302 29.8243 48.5956L35.1581 45.8478ZM35.1094 45.7393C35.1094 45.7433 35.1092 45.774 35.1017 45.8266L29.162 44.9781C29.1245 45.2403 29.1094 45.4956 29.1094 45.7393H35.1094ZM35.1179 45.6913C35.1265 45.602 35.1447 45.5636 35.1551 45.5444L29.8723 42.6998C29.4633 43.4592 29.227 44.2743 29.1458 45.1134L35.1179 45.6913ZM35.1551 45.5444C35.1861 45.4868 35.208 45.4671 35.222 45.4557L31.4226 40.8119C30.7776 41.3396 30.2606 41.9787 29.8723 42.6998L35.1551 45.5444ZM35.222 45.4557C35.264 45.4213 35.2916 45.4042 35.3038 45.3973C35.3155 45.3907 35.3153 45.3921 35.3042 45.3959L33.4068 39.7038C32.661 39.9523 31.9998 40.3397 31.4226 40.8119L35.222 45.4557ZM35.2698 45.4071C35.4039 45.3642 35.4452 45.3701 35.4111 45.3701V39.3701C34.7182 39.3701 34.0557 39.4959 33.4411 39.6925L35.2698 45.4071ZM35.4111 45.3701C35.4071 45.3701 35.3763 45.3699 35.3238 45.3624L36.1723 39.4227C35.9101 39.3853 35.6548 39.3701 35.4111 39.3701V45.3701ZM35.4591 45.3786C35.5484 45.3873 35.5868 45.4055 35.606 45.4158L38.4506 40.133C37.6912 39.7241 36.8761 39.4877 36.037 39.4065L35.4591 45.3786ZM35.606 45.4158C35.6635 45.4468 35.6833 45.4688 35.6947 45.4827L40.3385 41.6833C39.8108 41.0384 39.1717 40.5213 38.4506 40.133L35.606 45.4158ZM35.7461 45.5439C35.7801 45.5832 35.793 45.6048 35.7943 45.607C35.7952 45.6085 35.7867 45.5941 35.777 45.5649L41.4691 43.6675C41.2083 42.8852 40.7899 42.2043 40.2871 41.6221L35.7461 45.5439ZM35.7658 45.5305C35.8087 45.6647 35.8027 45.706 35.8027 45.6719H41.8027C41.8027 44.9789 41.677 44.3165 41.4803 43.7019L35.7658 45.5305ZM35.8027 45.6719C35.8027 45.653 35.8034 45.6406 35.8038 45.6352C35.8041 45.6297 35.8043 45.63 35.8034 45.6367L41.7571 46.3809C41.7853 46.1557 41.8027 45.9181 41.8027 45.6719H35.8027ZM35.7938 45.7244C35.7832 45.8352 35.7611 45.8579 35.7514 45.8709L40.5514 49.4709C41.2604 48.5255 41.6575 47.4402 41.7668 46.2932L35.7938 45.7244ZM35.7514 45.8709C35.6837 45.9612 35.6178 46.0138 35.5227 46.0587L38.0847 51.4842C39.0677 51.02 39.9003 50.339 40.5514 49.4709L35.7514 45.8709ZM35.1041 51.2436C35.1946 51.3058 35.2202 51.3474 35.2374 51.3807L40.5712 48.633C40.0792 47.6779 39.3712 46.896 38.5033 46.2994L35.1041 51.2436ZM35.2374 51.3807C35.2712 51.4463 35.2824 51.4843 35.2855 51.4963C35.2882 51.507 35.2861 51.5028 35.2861 51.4893H41.2861C41.2861 50.4602 41.017 49.4983 40.5712 48.633L35.2374 51.3807ZM35.2861 51.4893C35.2861 51.4852 35.2863 51.4545 35.2938 51.4019L41.2335 52.2504C41.271 51.9882 41.2861 51.7329 41.2861 51.4893H35.2861ZM61.8027 37.3164L64.7899 37.594L64.7902 37.5908L61.8027 37.3164ZM61.3311 42.3926V45.3926H64.0652L64.3182 42.6701L61.3311 42.3926ZM56.3672 42.3926L53.3808 42.1071L53.0667 45.3926H56.3672V42.3926ZM56.6592 39.3379L53.6744 39.0361L53.6736 39.0442L53.6728 39.0524L56.6592 39.3379ZM56.8613 37.3389L59.8461 37.6407L60.18 34.3389H56.8613V37.3389ZM47.7197 36.8672L46.9843 39.7756L47 39.7796L47.0158 39.7834L47.7197 36.8672ZM44.5752 35.2949L46.589 33.0713L46.5821 33.065L44.5752 35.2949ZM43.0479 32.8691L40.1484 33.6393L40.1556 33.6664L40.1633 33.6933L43.0479 32.8691ZM42.7559 28.2871L45.7402 28.5932L45.7423 28.5726L45.7442 28.5519L42.7559 28.2871ZM44.0811 21.7061L41.2414 20.7385L41.2382 20.7479L41.235 20.7574L44.0811 21.7061ZM46.9111 16.5176L44.6112 14.5914L44.6065 14.597L46.9111 16.5176ZM50.5049 13.71L51.8116 16.4104L51.8233 16.4048L51.8349 16.399L50.5049 13.71ZM59.7139 13.6201L58.1704 16.1926L58.1784 16.1974L58.1865 16.2022L59.7139 13.6201ZM62.0273 16.2031L59.2797 17.4076L59.2833 17.4156L62.0273 16.2031ZM62.6562 18.3594L59.6986 18.8616L59.7041 18.8938L59.7102 18.9259L62.6562 18.3594ZM62.9258 20.583L59.9285 20.7106L59.9299 20.7444L59.9321 20.7782L62.9258 20.583ZM62.7461 26.8721L59.7602 26.5818L59.759 26.5936L59.758 26.6055L62.7461 26.8721ZM62.207 32.9141L65.1945 33.1884L65.1952 33.1807L62.207 32.9141ZM57.2432 32.9141V35.9141H59.9762L60.2302 33.1929L57.2432 32.9141ZM57.4004 31.2295L60.3874 31.5083L60.3886 31.4956L57.4004 31.2295ZM57.8945 25.6816L54.9066 25.4125L54.9064 25.4155L57.8945 25.6816ZM57.917 19.415L55.0389 20.2615L55.0503 20.3002L55.0627 20.3385L57.917 19.415ZM57.3555 18.2021L59.7555 16.4021L57.3555 18.2021ZM55.5137 17.2363L55.1698 20.2166L55.1824 20.218L55.5137 17.2363ZM51.8525 18L53.5826 20.4509L53.5985 20.4397L53.6142 20.4283L51.8525 18ZM49.8086 20.3584L47.2132 18.8538L47.2069 18.8646L47.2007 18.8755L49.8086 20.3584ZM48.6406 23.0312L45.7988 22.07L45.7945 22.0827L45.7903 22.0953L48.6406 23.0312ZM47.8994 26.3555L44.9267 25.9518L44.9224 25.9833L44.9188 26.0148L47.8994 26.3555ZM48.7305 31.1621L51.1442 29.3806L51.1321 29.3642L51.1198 29.348L48.7305 31.1621ZM50.4375 32.5098L49.3233 35.2952L49.3338 35.2994L49.3443 35.3035L50.4375 32.5098ZM58.8156 37.0388L58.3439 42.115L64.3182 42.6701L64.7899 37.594L58.8156 37.0388ZM61.3311 39.3926H56.3672V45.3926H61.3311V39.3926ZM59.3536 42.678L59.6456 39.6234L53.6728 39.0524L53.3808 42.1071L59.3536 42.678ZM59.644 39.6397L59.8461 37.6407L53.8765 37.037L53.6744 39.0361L59.644 39.6397ZM56.8613 34.3389H52.3467V40.3389H56.8613V34.3389ZM52.3467 34.3389C50.7293 34.3389 49.4346 34.195 48.4236 33.9509L47.0158 39.7834C48.6103 40.1683 50.4003 40.3389 52.3467 40.3389V34.3389ZM48.4552 33.9587C47.5093 33.7195 46.9378 33.3872 46.589 33.0713L42.5614 37.5185C43.7998 38.6402 45.3247 39.356 46.9843 39.7756L48.4552 33.9587ZM46.5821 33.065C46.2404 32.7575 46.0429 32.4316 45.9324 32.045L40.1633 33.6933C40.5919 35.1934 41.4126 36.4847 42.5683 37.5248L46.5821 33.065ZM45.9473 32.099C45.7593 31.3911 45.666 30.6766 45.666 29.9492H39.666C39.666 31.1984 39.8273 32.4305 40.1484 33.6393L45.9473 32.099ZM45.666 29.9492C45.666 29.5386 45.6895 29.0874 45.7402 28.5932L39.7715 27.981C39.7024 28.6548 39.666 29.3116 39.666 29.9492H45.666ZM45.7442 28.5519C45.9355 26.3925 46.335 24.4309 46.9271 22.6547L41.235 20.7574C40.4794 23.0241 39.9955 25.4499 39.7676 28.0223L45.7442 28.5519ZM46.9207 22.6736C47.5076 20.9513 48.2838 19.5565 49.2158 18.4381L44.6065 14.597C43.1426 16.3537 42.0321 18.4179 41.2414 20.7385L46.9207 22.6736ZM49.2111 18.4438C49.9446 17.568 50.8051 16.8975 51.8116 16.4104L49.1982 11.0095C47.4195 11.8701 45.8842 13.0714 44.6112 14.5914L49.2111 18.4438ZM51.8349 16.399C52.7409 15.9509 53.8944 15.6768 55.3789 15.6768V9.67676C53.1499 9.67676 51.0541 10.0914 49.1748 11.0209L51.8349 16.399ZM55.3789 15.6768C56.9324 15.6768 57.7673 15.9508 58.1704 16.1926L61.2574 11.0476C59.5641 10.0317 57.509 9.67676 55.3789 9.67676V15.6768ZM58.1865 16.2022C58.7288 16.523 59.0622 16.9113 59.2797 17.4076L64.7749 14.9987C64.0342 13.3088 62.8252 11.9751 61.2413 11.0381L58.1865 16.2022ZM59.2833 17.4156C59.4543 17.8028 59.5996 18.2784 59.6986 18.8616L65.6139 17.8571C65.4434 16.8531 65.1693 15.8912 64.7714 14.9906L59.2833 17.4156ZM59.7102 18.9259C59.8355 19.5774 59.9055 20.1711 59.9285 20.7106L65.9231 20.4555C65.8861 19.5873 65.7765 18.6986 65.6023 17.7928L59.7102 18.9259ZM59.9321 20.7782C59.9741 21.4211 59.9932 21.96 59.9932 22.4023H65.9932C65.9932 21.7965 65.9673 21.1225 65.9194 20.3878L59.9321 20.7782ZM59.9932 22.4023C59.9932 22.7775 59.98 23.3154 59.9507 24.0319L65.9457 24.2766C65.9764 23.5258 65.9932 22.8957 65.9932 22.4023H59.9932ZM59.9507 24.0319C59.9239 24.6901 59.8618 25.536 59.7602 26.5818L65.732 27.1624C65.84 26.0519 65.9127 25.0859 65.9457 24.2766L59.9507 24.0319ZM59.758 26.6055L59.2189 32.6475L65.1952 33.1807L65.7342 27.1387L59.758 26.6055ZM59.2196 32.6397L58.8153 37.042L64.7902 37.5908L65.1945 33.1884L59.2196 32.6397ZM60.2302 33.1929L60.3874 31.5083L54.4134 30.9507L54.2561 32.6353L60.2302 33.1929ZM60.3886 31.4956L60.8827 25.9478L54.9064 25.4155L54.4122 30.9633L60.3886 31.4956ZM60.8824 25.9508C61.0306 24.3064 61.1224 23.1116 61.1404 22.4632L55.1428 22.2966C55.1308 22.7263 55.058 23.7327 54.9066 25.4125L60.8824 25.9508ZM61.1404 22.4632C61.1548 21.9464 61.1641 21.5715 61.1641 21.4141H55.1641C55.1641 21.4128 55.164 21.4309 55.1631 21.4808C55.1623 21.5263 55.1611 21.5871 55.1593 21.6644C55.1557 21.8188 55.1502 22.029 55.1428 22.2966L61.1404 22.4632ZM61.1641 21.4141C61.1641 20.4269 61.0699 19.4143 60.7713 18.4916L55.0627 20.3385C55.0936 20.434 55.1641 20.7541 55.1641 21.4141H61.1641ZM60.7951 18.5685C60.5831 17.8477 60.2646 17.081 59.7555 16.4021L54.9555 20.0021C54.9206 19.9557 54.9205 19.944 54.9419 19.9904C54.9631 20.0361 54.9981 20.1227 55.0389 20.2615L60.7951 18.5685ZM59.7555 16.4021C59.2848 15.7745 58.674 15.2266 57.911 14.845L55.2277 20.2116C55.1514 20.1734 55.0876 20.1292 55.0381 20.0869C54.9896 20.0453 54.9635 20.0129 54.9555 20.0021L59.7555 16.4021ZM57.911 14.845C57.2351 14.5071 56.5277 14.3305 55.845 14.2547L55.1824 20.218C55.2439 20.2248 55.2748 20.2327 55.2811 20.2345C55.2867 20.236 55.2662 20.2309 55.2277 20.2116L57.911 14.845ZM55.8575 14.2561C55.3262 14.1948 54.7581 14.1689 54.166 14.1689V20.1689C54.5921 20.1689 54.9225 20.188 55.1698 20.2166L55.8575 14.2561ZM54.166 14.1689C52.6302 14.1689 51.256 14.7264 50.0909 15.5717L53.6142 20.4283C53.9764 20.1655 54.1445 20.1689 54.166 20.1689V14.1689ZM50.1225 15.5491C48.9218 16.3966 47.9709 17.5467 47.2132 18.8538L52.404 21.863C52.8442 21.1037 53.2559 20.6815 53.5826 20.4509L50.1225 15.5491ZM47.2007 18.8755C46.6539 19.8371 46.1914 20.9093 45.7988 22.07L51.4825 23.9925C51.7787 23.1167 52.0948 22.407 52.4165 21.8413L47.2007 18.8755ZM45.7903 22.0953C45.3959 23.2967 45.1122 24.5859 44.9267 25.9518L50.8721 26.7592C51.0161 25.6992 51.2265 24.7723 51.4909 23.9672L45.7903 22.0953ZM44.9188 26.0148C44.8477 26.6371 44.8096 27.2458 44.8096 27.8379H50.8096C50.8096 27.5016 50.8313 27.122 50.88 26.6961L44.9188 26.0148ZM44.8096 27.8379C44.8096 29.6523 45.2034 31.4777 46.3411 32.9762L51.1198 29.348C51.0297 29.2293 50.8096 28.8386 50.8096 27.8379H44.8096ZM46.3167 32.9437C47.0858 33.9856 48.0914 34.8024 49.3233 35.2952L51.5517 29.7243C51.436 29.6781 51.3036 29.5965 51.1442 29.3806L46.3167 32.9437ZM49.3443 35.3035C50.4578 35.7392 51.6526 35.9141 52.8633 35.9141V29.9141C52.2172 29.9141 51.7948 29.8194 51.5307 29.716L49.3443 35.3035ZM52.8633 35.9141H57.2432V29.9141H52.8633V35.9141ZM104.905 37.3164V34.3164H102.591L102.003 36.5553L104.905 37.3164ZM102.974 42.1455L100.379 40.6391L100.373 40.6496L100.367 40.6601L102.974 42.1455ZM100.099 45.8066L98.0517 43.6135L98.0488 43.6161L100.099 45.8066ZM94.3486 49.1758L93.4174 46.324L93.4087 46.3268L93.3999 46.3297L94.3486 49.1758ZM83.9043 50.0518L83.4678 53.0198L83.474 53.0207L83.9043 50.0518ZM80.917 49.3105L81.9177 46.4824L81.905 46.4779L81.8922 46.4735L80.917 49.3105ZM78.1543 48.0078L76.5722 50.5567L76.5819 50.5628L76.5917 50.5687L78.1543 48.0078ZM75.751 46.0312L77.9344 43.9738L77.9253 43.9643L75.751 46.0312ZM73.1455 41.8311L70.3246 42.852L70.3273 42.8595L70.33 42.8669L73.1455 41.8311ZM72.584 33.4082L69.6363 32.8505L69.6326 32.8698L69.6292 32.8891L72.584 33.4082ZM73.5273 30.2188L70.7678 29.0419L70.7605 29.0592L70.7533 29.0765L73.5273 30.2188ZM75.1445 27.3438L72.7114 25.5887L72.7061 25.5962L75.1445 27.3438ZM77.4805 24.8506L79.401 27.1553L79.412 27.1461L79.4228 27.1369L77.4805 24.8506ZM98.167 20.583L101.154 20.8574L101.455 17.583H98.167V20.583ZM97.7627 24.9854V27.9854H100.5L100.75 25.2597L97.7627 24.9854ZM84.8926 25.7939L85.9016 28.6192L85.9143 28.6146L85.927 28.61L84.8926 25.7939ZM81.0068 28.0625L82.9862 30.3168L82.9887 30.3146L81.0068 28.0625ZM78.1992 31.8359L75.4613 30.6096L75.4584 30.6162L75.4554 30.6229L78.1992 31.8359ZM80.0859 43.2012L82.1261 41.0017L82.1196 40.9957L82.1131 40.9897L80.0859 43.2012ZM92.5967 45.0205L91.6153 42.1856L91.6032 42.1898L91.5911 42.1941L92.5967 45.0205ZM96.7744 42.3701L98.8957 44.4914L96.7744 42.3701ZM99.3574 38.5068L96.6281 37.2614L96.6231 37.2724L96.6182 37.2835L99.3574 38.5068ZM100.728 32.9141L103.714 33.2004L103.715 33.1933L103.715 33.1862L100.728 32.9141ZM101.851 20.583V17.583H99.1114L98.863 20.3109L101.851 20.583ZM106.837 20.583L109.825 20.8497L110.117 17.583H106.837V20.583ZM105.736 32.9141L102.748 32.6474L102.457 35.9141H105.736V32.9141ZM109.397 32.9141V35.9141H112.137L112.385 33.1862L109.397 32.9141ZM110.521 20.583V17.583H107.781L107.533 20.3109L110.521 20.583ZM115.484 20.583L118.472 20.8497L118.764 17.583H115.484V20.583ZM114.384 32.9141L111.396 32.6474L111.104 35.9141H114.384V32.9141ZM118.045 32.9141V35.9141H120.784L121.033 33.1862L118.045 32.9141ZM119.168 20.583V17.583H116.429L116.18 20.3109L119.168 20.583ZM124.132 20.583L127.12 20.8497L127.412 17.583H124.132V20.583ZM123.031 32.9141L126.019 33.1884L126.019 33.1808L123.031 32.9141ZM122.627 37.3164V40.3164H125.364L125.614 37.5908L122.627 37.3164ZM108.634 14.6309L106.459 16.6971L106.512 16.7529L106.568 16.8059L108.634 14.6309ZM112.542 9.62207L110.931 12.1531L110.959 12.1707L110.987 12.1877L112.542 9.62207ZM113.688 10.79L111.073 12.2608L113.688 16.9092L116.302 12.2608L113.688 10.79ZM114.833 9.62207L116.388 12.1877L116.416 12.1707L116.444 12.1531L114.833 9.62207ZM117.708 9.39746L116.5 12.1434L116.519 12.152L116.539 12.1604L117.708 9.39746ZM118.719 10.0938L116.544 12.16L116.597 12.2158L116.653 12.2687L118.719 10.0938ZM118.719 14.6309L116.597 12.5095L118.719 14.6309ZM117.708 15.3047L116.539 12.5418L116.519 12.5501L116.5 12.5587L117.708 15.3047ZM114.833 15.1025L113.222 17.6335L113.25 17.6511L113.278 17.6681L114.833 15.1025ZM113.688 13.8896L116.321 12.4531L113.688 7.62467L111.054 12.4531L113.688 13.8896ZM112.542 15.1025L114.097 17.6681L114.125 17.6511L114.153 17.6335L112.542 15.1025ZM116.45 8.52148L118.572 10.6428L118.599 10.6156L118.625 10.5877L116.45 8.52148ZM111.936 8.52148L109.761 10.5877L109.814 10.6435L109.869 10.6965L111.936 8.52148ZM111.936 3.98438L109.869 1.80938L109.841 1.83586L109.814 1.86305L111.936 3.98438ZM102.003 36.5553C101.581 38.1647 101.031 39.5161 100.379 40.6391L105.568 43.6519C106.533 41.9897 107.271 40.1217 107.807 38.0775L102.003 36.5553ZM100.367 40.6601C99.7168 41.8014 98.9442 42.7805 98.0517 43.6135L102.146 47.9998C103.499 46.7364 104.643 45.2748 105.58 43.6309L100.367 40.6601ZM98.0488 43.6161C96.7483 44.8331 95.2173 45.7363 93.4174 46.324L95.2798 52.0276C97.8824 51.1778 100.185 49.8348 102.148 47.9971L98.0488 43.6161ZM93.3999 46.3297C91.5496 46.9465 89.4278 47.2764 87.0039 47.2764V53.2764C89.9706 53.2764 92.7453 52.8725 95.2973 52.0218L93.3999 46.3297ZM87.0039 47.2764C86.1162 47.2764 85.2268 47.2121 84.3346 47.0828L83.474 53.0207C84.6482 53.1909 85.8252 53.2764 87.0039 53.2764V47.2764ZM84.3408 47.0837C83.5153 46.9623 82.7085 46.7622 81.9177 46.4824L79.9163 52.1387C81.0721 52.5477 82.2568 52.8417 83.4678 53.0198L84.3408 47.0837ZM81.8922 46.4735C81.1434 46.2161 80.4191 45.8754 79.7169 45.4469L76.5917 50.5687C77.6564 51.2184 78.7739 51.7462 79.9417 52.1476L81.8922 46.4735ZM79.7364 45.4589C79.0989 45.0632 78.4981 44.5721 77.9343 43.9738L73.5676 48.0887C74.4713 49.0477 75.4728 49.8743 76.5722 50.5567L79.7364 45.4589ZM77.9253 43.9643C77.0571 43.051 76.4053 42.0028 75.961 40.7952L70.33 42.8669C71.0537 44.8338 72.1388 46.5857 73.5766 48.0982L77.9253 43.9643ZM75.9665 40.8101C75.5235 39.5862 75.292 38.2566 75.292 36.7998H69.292C69.292 38.9068 69.6295 40.9314 70.3246 42.852L75.9665 40.8101ZM75.292 36.7998C75.292 35.8165 75.3749 34.8598 75.5387 33.9273L69.6292 32.8891C69.4037 34.1728 69.292 35.4771 69.292 36.7998H75.292ZM75.5317 33.9659C75.7044 33.0532 75.9616 32.1863 76.3014 31.361L70.7533 29.0765C70.2546 30.2877 69.8829 31.547 69.6363 32.8505L75.5317 33.9659ZM76.2869 31.3956C76.6354 30.5785 77.0668 29.8115 77.583 29.0913L72.7061 25.5962C71.9345 26.6728 71.2878 27.8226 70.7678 29.0419L76.2869 31.3956ZM77.5776 29.0988C78.0838 28.397 78.6884 27.7491 79.401 27.1553L75.5599 22.5459C74.4757 23.4494 73.523 24.4636 72.7114 25.5887L77.5776 29.0988ZM79.4228 27.1369C80.7769 25.9866 82.4049 25.1026 84.3532 24.508L82.6018 18.7693C79.9382 19.5823 77.5682 20.8396 75.5381 22.5643L79.4228 27.1369ZM84.3532 24.508C86.3457 23.8999 88.5407 23.583 90.957 23.583V17.583C88.0127 17.583 85.2214 17.9699 82.6018 18.7693L84.3532 24.508ZM90.957 23.583H98.167V17.583H90.957V23.583ZM95.1796 20.3087L94.7753 24.711L100.75 25.2597L101.154 20.8574L95.1796 20.3087ZM97.7627 21.9854H89.6094V27.9854H97.7627V21.9854ZM89.6094 21.9854C87.6051 21.9854 85.6803 22.3086 83.8581 22.9779L85.927 28.61C87.0398 28.2012 88.2594 27.9854 89.6094 27.9854V21.9854ZM83.8836 22.9687C82.0736 23.6151 80.4449 24.5608 79.025 25.8104L82.9887 30.3146C83.8148 29.5876 84.7766 29.0209 85.9016 28.6192L83.8836 22.9687ZM79.0274 25.8082C77.4883 27.1596 76.2879 28.7641 75.4613 30.6096L80.9371 33.0623C81.3983 32.0327 82.0697 31.1216 82.9862 30.3168L79.0274 25.8082ZM75.4554 30.6229C74.6493 32.4463 74.2559 34.3891 74.2559 36.418H80.2559C80.2559 35.1825 80.4914 34.0706 80.943 33.049L75.4554 30.6229ZM74.2559 36.418C74.2559 38.1917 74.5651 39.8872 75.2453 41.4536L80.7489 39.0639C80.4407 38.3543 80.2559 37.4893 80.2559 36.418H74.2559ZM75.2453 41.4536C75.9039 42.9705 76.8445 44.2996 78.0588 45.4126L82.1131 40.9897C81.5305 40.4557 81.0785 39.8232 80.7489 39.0639L75.2453 41.4536ZM78.0458 45.4007C79.4145 46.6702 81.0078 47.5824 82.7952 48.1186L84.5193 42.3716C83.6114 42.0993 82.8238 41.6488 82.1261 41.0017L78.0458 45.4007ZM82.7952 48.1186C84.4165 48.605 86.0693 48.8516 87.7451 48.8516V42.8516C86.6657 42.8516 85.5933 42.6938 84.5193 42.3716L82.7952 48.1186ZM87.7451 48.8516C89.7597 48.8516 91.7174 48.5175 93.6022 47.847L91.5911 42.1941C90.3614 42.6315 89.0847 42.8516 87.7451 42.8516V48.8516ZM93.578 47.8555C95.5874 47.1599 97.3645 46.0227 98.8957 44.4914L94.6531 40.2488C93.7286 41.1733 92.7205 41.803 91.6153 42.1856L93.578 47.8555ZM98.8957 44.4914C100.225 43.1621 101.281 41.5556 102.097 39.7302L96.6182 37.2835C96.0558 38.5427 95.3902 39.5117 94.6531 40.2488L98.8957 44.4914ZM102.087 39.7522C102.963 37.8322 103.481 35.6256 103.714 33.2004L97.7412 32.6277C97.5545 34.575 97.1596 36.0969 96.6281 37.2614L102.087 39.7522ZM103.715 33.1862L104.838 20.8551L98.863 20.3109L97.7399 32.642L103.715 33.1862ZM101.851 23.583H106.837V17.583H101.851V23.583ZM103.849 20.3163L102.748 32.6474L108.724 33.1808L109.825 20.8497L103.849 20.3163ZM105.736 35.9141H109.397V29.9141H105.736V35.9141ZM112.385 33.1862L113.508 20.8551L107.533 20.3109L106.41 32.642L112.385 33.1862ZM110.521 23.583H115.484V17.583H110.521V23.583ZM112.496 20.3163L111.396 32.6474L117.372 33.1808L118.472 20.8497L112.496 20.3163ZM114.384 35.9141H118.045V29.9141H114.384V35.9141ZM121.033 33.1862L122.156 20.8551L116.18 20.3109L115.057 32.642L121.033 33.1862ZM119.168 23.583H124.132V17.583H119.168V23.583ZM121.144 20.3163L120.043 32.6474L126.019 33.1808L127.12 20.8497L121.144 20.3163ZM120.044 32.6397L119.64 37.042L125.614 37.5908L126.019 33.1884L120.044 32.6397ZM122.627 34.3164H104.905V40.3164H122.627V34.3164ZM110.902 12.5518C110.858 12.5518 110.845 12.5457 110.836 12.5418L108.498 18.0676C109.267 18.3931 110.078 18.5518 110.902 18.5518V12.5518ZM110.836 12.5418C110.771 12.5142 110.732 12.4862 110.7 12.4559L106.568 16.8059C107.135 17.3445 107.785 17.7658 108.498 18.0676L110.836 12.5418ZM110.809 12.5646C110.778 12.5326 110.75 12.494 110.723 12.4287L105.197 14.7666C105.499 15.48 105.92 16.1301 106.459 16.6971L110.809 12.5646ZM110.723 12.4287C110.719 12.4194 110.713 12.4062 110.713 12.3623H104.713C104.713 13.1869 104.872 13.9972 105.197 14.7666L110.723 12.4287ZM110.713 12.3623C110.713 12.3219 110.716 12.2989 110.718 12.2892C110.72 12.2799 110.722 12.2759 110.723 12.2734L105.197 9.93557C104.866 10.7175 104.713 11.537 104.713 12.3623H110.713ZM110.723 12.2734C110.735 12.2442 110.744 12.2293 110.748 12.2239C110.752 12.2188 110.753 12.2167 110.755 12.2151L106.512 7.97243C105.941 8.54384 105.505 9.20873 105.197 9.93557L110.723 12.2734ZM110.755 12.2151C110.782 12.1883 110.803 12.1742 110.836 12.1604L108.498 6.63456C107.752 6.9501 107.085 7.40029 106.512 7.97243L110.755 12.2151ZM110.836 12.1604C110.845 12.1564 110.858 12.1504 110.902 12.1504V6.15039C110.078 6.15039 109.267 6.30907 108.498 6.63456L110.836 12.1604ZM110.902 12.1504C110.921 12.1504 110.931 12.1516 110.934 12.152C110.937 12.1524 110.936 12.1525 110.932 12.1514C110.928 12.1503 110.925 12.149 110.923 12.1482C110.921 12.1474 110.924 12.1484 110.931 12.1531L114.153 7.09109C113.166 6.46307 112.058 6.15039 110.902 6.15039V12.1504ZM110.987 12.1877C111.033 12.2152 111.052 12.2338 111.057 12.2393C111.062 12.2442 111.066 12.2492 111.073 12.2608L116.302 9.31925C115.766 8.36678 115.009 7.60943 114.097 7.05648L110.987 12.1877ZM116.302 12.2608C116.309 12.2492 116.313 12.2442 116.318 12.2393C116.323 12.2338 116.342 12.2152 116.388 12.1877L113.278 7.05648C112.366 7.60943 111.609 8.36678 111.073 9.31925L116.302 12.2608ZM116.444 12.1531C116.451 12.1484 116.454 12.1474 116.452 12.1482C116.45 12.149 116.447 12.1503 116.443 12.1514C116.439 12.1525 116.438 12.1524 116.441 12.152C116.444 12.1516 116.454 12.1504 116.473 12.1504V6.15039C115.317 6.15039 114.209 6.46307 113.222 7.09109L116.444 12.1531ZM116.473 12.1504C116.493 12.1504 116.508 12.1513 116.517 12.1522C116.521 12.1526 116.525 12.1531 116.527 12.1534C116.529 12.1537 116.53 12.1539 116.53 12.1539C116.53 12.1539 116.529 12.1537 116.528 12.1533C116.526 12.1529 116.524 12.1523 116.521 12.1513C116.515 12.1495 116.508 12.1469 116.5 12.1434L118.916 6.65152C118.125 6.30342 117.297 6.15039 116.473 6.15039V12.1504ZM116.539 12.1604C116.546 12.1635 116.55 12.1656 116.552 12.1663C116.553 12.167 116.552 12.1668 116.551 12.1656C116.549 12.1644 116.547 12.163 116.545 12.1615C116.544 12.16 116.543 12.1593 116.544 12.16L120.894 8.0275C120.319 7.42206 119.637 6.95604 118.877 6.63456L116.539 12.1604ZM116.653 12.2687C116.653 12.2694 116.652 12.2688 116.651 12.2671C116.65 12.2653 116.648 12.2634 116.647 12.2617C116.646 12.26 116.646 12.2595 116.646 12.2608C116.647 12.2621 116.649 12.2661 116.652 12.2734L122.178 9.93557C121.856 9.1757 121.39 8.49392 120.785 7.91875L116.653 12.2687ZM116.652 12.2734C116.653 12.2759 116.655 12.2799 116.657 12.2892C116.659 12.2989 116.662 12.3219 116.662 12.3623H122.662C122.662 11.537 122.509 10.7175 122.178 9.93557L116.652 12.2734ZM116.662 12.3623C116.662 12.4062 116.656 12.4194 116.652 12.4287L122.178 14.7666C122.503 13.9972 122.662 13.1869 122.662 12.3623H116.662ZM116.652 12.4287C116.638 12.4616 116.624 12.4827 116.597 12.5095L120.84 16.7522C121.412 16.18 121.862 15.5124 122.178 14.7666L116.652 12.4287ZM116.597 12.5095C116.596 12.5112 116.594 12.5131 116.589 12.5165C116.583 12.5202 116.568 12.5294 116.539 12.5418L118.877 18.0676C119.604 17.7601 120.269 17.3236 120.84 16.7522L116.597 12.5095ZM116.5 12.5587C116.508 12.5553 116.515 12.5527 116.521 12.5508C116.524 12.5499 116.526 12.5493 116.528 12.5488C116.529 12.5484 116.53 12.5482 116.53 12.5482C116.53 12.5483 116.529 12.5485 116.527 12.5488C116.525 12.5491 116.521 12.5495 116.517 12.5499C116.508 12.5508 116.493 12.5518 116.473 12.5518V18.5518C117.297 18.5518 118.125 18.3987 118.916 18.0506L116.5 12.5587ZM116.473 12.5518C116.426 12.5518 116.407 12.5463 116.406 12.5461C116.405 12.5457 116.404 12.5453 116.402 12.5447C116.401 12.5441 116.396 12.542 116.388 12.5369L113.278 17.6681C114.259 18.2625 115.346 18.5518 116.473 18.5518V12.5518ZM116.444 12.5716C116.36 12.518 116.338 12.4834 116.321 12.4531L111.054 15.3262C111.576 16.2842 112.318 17.0581 113.222 17.6335L116.444 12.5716ZM111.054 12.4531C111.037 12.4834 111.015 12.518 110.931 12.5716L114.153 17.6335C115.057 17.0581 115.799 16.2842 116.321 15.3262L111.054 12.4531ZM110.987 12.5369C110.979 12.542 110.974 12.5441 110.973 12.5447C110.971 12.5453 110.97 12.5457 110.969 12.5461C110.968 12.5463 110.949 12.5518 110.902 12.5518V18.5518C112.029 18.5518 113.116 18.2625 114.097 17.6681L110.987 12.5369ZM114.204 6.06348C114.248 6.06348 114.261 6.06951 114.271 6.07345L116.608 0.547645C115.839 0.222155 115.029 0.0634766 114.204 0.0634766V6.06348ZM114.271 6.07345C114.3 6.0858 114.315 6.09508 114.32 6.09869C114.325 6.10211 114.327 6.10403 114.329 6.1057L118.572 1.86305C118 1.29165 117.335 0.855154 116.608 0.547645L114.271 6.07345ZM114.329 6.1057C114.331 6.10736 114.332 6.1094 114.336 6.11454C114.339 6.11995 114.349 6.13485 114.361 6.16404L119.887 3.8262C119.579 3.09936 119.143 2.43446 118.572 1.86305L114.329 6.1057ZM114.361 6.16404C114.365 6.17334 114.371 6.18661 114.371 6.23047H120.371C120.371 5.40584 120.212 4.59554 119.887 3.8262L114.361 6.16404ZM114.371 6.23047C114.371 6.27087 114.367 6.29392 114.366 6.3036C114.364 6.31283 114.362 6.31689 114.361 6.31936L119.887 8.6572C120.218 7.87523 120.371 7.05574 120.371 6.23047H114.371ZM114.361 6.31936C114.334 6.38459 114.306 6.42327 114.275 6.45524L118.625 10.5877C119.164 10.0207 119.585 9.37062 119.887 8.6572L114.361 6.31936ZM114.329 6.40016C114.327 6.40183 114.325 6.40375 114.32 6.40717C114.315 6.41078 114.3 6.42006 114.271 6.43241L116.608 11.9582C117.335 11.6507 118 11.2142 118.572 10.6428L114.329 6.40016ZM114.271 6.43241C114.261 6.43635 114.248 6.44238 114.204 6.44238V12.4424C115.029 12.4424 115.839 12.2837 116.608 11.9582L114.271 6.43241ZM114.204 6.44238C114.16 6.44238 114.147 6.43635 114.138 6.43241L111.8 11.9582C112.569 12.2837 113.379 12.4424 114.204 12.4424V6.44238ZM114.138 6.43241C114.072 6.40481 114.034 6.37686 114.002 6.34649L109.869 10.6965C110.436 11.2351 111.086 11.6564 111.8 11.9582L114.138 6.43241ZM114.111 6.45524C114.08 6.42327 114.052 6.38459 114.025 6.31936L108.499 8.6572C108.801 9.37062 109.222 10.0207 109.761 10.5877L114.111 6.45524ZM114.025 6.31936C114.024 6.31689 114.022 6.31283 114.02 6.3036C114.018 6.29392 114.015 6.27087 114.015 6.23047H108.015C108.015 7.05574 108.168 7.87523 108.499 8.6572L114.025 6.31936ZM114.015 6.23047C114.015 6.18661 114.021 6.17334 114.025 6.16404L108.499 3.8262C108.173 4.59554 108.015 5.40584 108.015 6.23047H114.015ZM114.025 6.16404C114.037 6.13485 114.046 6.11995 114.05 6.11454C114.053 6.1094 114.055 6.10736 114.057 6.1057L109.814 1.86305C109.243 2.43446 108.806 3.09936 108.499 3.8262L114.025 6.16404ZM114.002 6.15937C114.034 6.129 114.072 6.10104 114.138 6.07345L111.8 0.547645C111.086 0.849476 110.436 1.27074 109.869 1.80938L114.002 6.15937ZM114.138 6.07345C114.147 6.06951 114.16 6.06348 114.204 6.06348V0.0634766C113.379 0.0634766 112.569 0.222155 111.8 0.547645L114.138 6.07345ZM146.211 37.3164L149.198 37.594L149.198 37.5908L146.211 37.3164ZM145.739 42.3926V45.3926H148.473L148.726 42.6701L145.739 42.3926ZM140.775 42.3926L137.789 42.1071L137.475 45.3926H140.775V42.3926ZM141.067 39.3379L138.083 39.0361L138.082 39.0442L138.081 39.0524L141.067 39.3379ZM141.27 37.3389L144.254 37.6407L144.588 34.3389H141.27V37.3389ZM132.128 36.8672L131.392 39.7756L131.408 39.7796L131.424 39.7834L132.128 36.8672ZM128.983 35.2949L130.997 33.0713L130.99 33.065L128.983 35.2949ZM127.456 32.8691L124.557 33.6393L124.564 33.6664L124.571 33.6933L127.456 32.8691ZM127.164 28.2871L130.148 28.5932L130.151 28.5726L130.152 28.5519L127.164 28.2871ZM128.489 21.7061L125.65 20.7385L125.646 20.7479L125.643 20.7574L128.489 21.7061ZM131.319 16.5176L129.019 14.5914L129.015 14.597L131.319 16.5176ZM134.913 13.71L136.22 16.4104L136.231 16.4048L136.243 16.399L134.913 13.71ZM144.122 13.6201L142.579 16.1926L142.587 16.1974L142.595 16.2022L144.122 13.6201ZM146.436 16.2031L143.688 17.4076L143.691 17.4156L146.436 16.2031ZM147.064 18.3594L144.107 18.8616L144.112 18.8938L144.118 18.9259L147.064 18.3594ZM147.334 20.583L144.337 20.7106L144.338 20.7444L144.34 20.7782L147.334 20.583ZM147.154 26.8721L144.168 26.5818L144.167 26.5936L144.166 26.6055L147.154 26.8721ZM146.615 32.9141L149.603 33.1884L149.603 33.1807L146.615 32.9141ZM141.651 32.9141V35.9141H144.384L144.638 33.1929L141.651 32.9141ZM141.809 31.2295L144.796 31.5083L144.797 31.4956L141.809 31.2295ZM142.303 25.6816L139.315 25.4125L139.315 25.4155L142.303 25.6816ZM142.325 19.415L139.447 20.2615L139.458 20.3002L139.471 20.3385L142.325 19.415ZM141.764 18.2021L144.164 16.4021L141.764 18.2021ZM139.922 17.2363L139.578 20.2166L139.591 20.218L139.922 17.2363ZM136.261 18L137.991 20.4509L138.007 20.4397L138.022 20.4283L136.261 18ZM134.217 20.3584L131.621 18.8538L131.615 18.8646L131.609 18.8755L134.217 20.3584ZM133.049 23.0312L130.207 22.07L130.203 22.0827L130.199 22.0953L133.049 23.0312ZM132.308 26.3555L129.335 25.9518L129.331 25.9833L129.327 26.0148L132.308 26.3555ZM133.139 31.1621L135.552 29.3806L135.54 29.3642L135.528 29.348L133.139 31.1621ZM134.846 32.5098L133.732 35.2952L133.742 35.2994L133.753 35.3035L134.846 32.5098ZM143.224 37.0388L142.752 42.115L148.726 42.6701L149.198 37.594L143.224 37.0388ZM145.739 39.3926H140.775V45.3926H145.739V39.3926ZM143.762 42.678L144.054 39.6234L138.081 39.0524L137.789 42.1071L143.762 42.678ZM144.052 39.6397L144.254 37.6407L138.285 37.037L138.083 39.0361L144.052 39.6397ZM141.27 34.3389H136.755V40.3389H141.27V34.3389ZM136.755 34.3389C135.138 34.3389 133.843 34.195 132.832 33.9509L131.424 39.7834C133.018 40.1683 134.808 40.3389 136.755 40.3389V34.3389ZM132.863 33.9587C131.917 33.7195 131.346 33.3872 130.997 33.0713L126.97 37.5185C128.208 38.6402 129.733 39.356 131.392 39.7756L132.863 33.9587ZM130.99 33.065C130.649 32.7575 130.451 32.4316 130.341 32.045L124.571 33.6933C125 35.1934 125.821 36.4847 126.977 37.5248L130.99 33.065ZM130.356 32.099C130.167 31.3911 130.074 30.6766 130.074 29.9492H124.074C124.074 31.1984 124.236 32.4305 124.557 33.6393L130.356 32.099ZM130.074 29.9492C130.074 29.5386 130.098 29.0874 130.148 28.5932L124.18 27.981C124.111 28.6548 124.074 29.3116 124.074 29.9492H130.074ZM130.152 28.5519C130.344 26.3925 130.743 24.4309 131.335 22.6547L125.643 20.7574C124.888 23.0241 124.404 25.4499 124.176 28.0223L130.152 28.5519ZM131.329 22.6736C131.916 20.9513 132.692 19.5565 133.624 18.4381L129.015 14.597C127.551 16.3537 126.44 18.4179 125.65 20.7385L131.329 22.6736ZM133.619 18.4438C134.353 17.568 135.213 16.8975 136.22 16.4104L133.606 11.0095C131.828 11.8701 130.292 13.0714 129.019 14.5914L133.619 18.4438ZM136.243 16.399C137.149 15.9509 138.303 15.6768 139.787 15.6768V9.67676C137.558 9.67676 135.462 10.0914 133.583 11.0209L136.243 16.399ZM139.787 15.6768C141.341 15.6768 142.176 15.9508 142.579 16.1926L145.666 11.0476C143.972 10.0317 141.917 9.67676 139.787 9.67676V15.6768ZM142.595 16.2022C143.137 16.523 143.47 16.9113 143.688 17.4076L149.183 14.9987C148.442 13.3088 147.233 11.9751 145.649 11.0381L142.595 16.2022ZM143.691 17.4156C143.863 17.8028 144.008 18.2784 144.107 18.8616L150.022 17.8571C149.852 16.8531 149.578 15.8912 149.18 14.9906L143.691 17.4156ZM144.118 18.9259C144.244 19.5774 144.314 20.1711 144.337 20.7106L150.331 20.4555C150.294 19.5873 150.185 18.6986 150.01 17.7928L144.118 18.9259ZM144.34 20.7782C144.382 21.4211 144.401 21.96 144.401 22.4023H150.401C150.401 21.7965 150.376 21.1225 150.328 20.3878L144.34 20.7782ZM144.401 22.4023C144.401 22.7775 144.388 23.3154 144.359 24.0319L150.354 24.2766C150.385 23.5258 150.401 22.8957 150.401 22.4023H144.401ZM144.359 24.0319C144.332 24.6901 144.27 25.536 144.168 26.5818L150.14 27.1624C150.248 26.0519 150.321 25.0859 150.354 24.2766L144.359 24.0319ZM144.166 26.6055L143.627 32.6475L149.603 33.1807L150.142 27.1387L144.166 26.6055ZM143.628 32.6397L143.224 37.042L149.198 37.5908L149.603 33.1884L143.628 32.6397ZM144.638 33.1929L144.796 31.5083L138.822 30.9507L138.664 32.6353L144.638 33.1929ZM144.797 31.4956L145.291 25.9478L139.315 25.4155L138.82 30.9633L144.797 31.4956ZM145.291 25.9508C145.439 24.3064 145.531 23.1116 145.549 22.4632L139.551 22.2966C139.539 22.7263 139.466 23.7327 139.315 25.4125L145.291 25.9508ZM145.549 22.4632C145.563 21.9464 145.572 21.5715 145.572 21.4141H139.572C139.572 21.4128 139.572 21.4309 139.571 21.4808C139.571 21.5263 139.569 21.5871 139.567 21.6644C139.564 21.8188 139.558 22.029 139.551 22.2966L145.549 22.4632ZM145.572 21.4141C145.572 20.4269 145.478 19.4143 145.18 18.4916L139.471 20.3385C139.502 20.434 139.572 20.7541 139.572 21.4141H145.572ZM145.203 18.5685C144.991 17.8477 144.673 17.081 144.164 16.4021L139.364 20.0021C139.329 19.9557 139.329 19.944 139.35 19.9904C139.371 20.0361 139.406 20.1227 139.447 20.2615L145.203 18.5685ZM144.164 16.4021C143.693 15.7745 143.082 15.2266 142.319 14.845L139.636 20.2116C139.56 20.1734 139.496 20.1292 139.446 20.0869C139.398 20.0453 139.372 20.0129 139.364 20.0021L144.164 16.4021ZM142.319 14.845C141.643 14.5071 140.936 14.3305 140.253 14.2547L139.591 20.218C139.652 20.2248 139.683 20.2327 139.689 20.2345C139.695 20.236 139.674 20.2309 139.636 20.2116L142.319 14.845ZM140.266 14.2561C139.734 14.1948 139.166 14.1689 138.574 14.1689V20.1689C139 20.1689 139.331 20.188 139.578 20.2166L140.266 14.2561ZM138.574 14.1689C137.038 14.1689 135.664 14.7264 134.499 15.5717L138.022 20.4283C138.385 20.1655 138.553 20.1689 138.574 20.1689V14.1689ZM134.531 15.5491C133.33 16.3966 132.379 17.5467 131.621 18.8538L136.812 21.863C137.252 21.1037 137.664 20.6815 137.991 20.4509L134.531 15.5491ZM131.609 18.8755C131.062 19.8371 130.6 20.9093 130.207 22.07L135.891 23.9925C136.187 23.1167 136.503 22.407 136.825 21.8413L131.609 18.8755ZM130.199 22.0953C129.804 23.2967 129.52 24.5859 129.335 25.9518L135.28 26.7592C135.424 25.6992 135.635 24.7723 135.899 23.9672L130.199 22.0953ZM129.327 26.0148C129.256 26.6371 129.218 27.2458 129.218 27.8379H135.218C135.218 27.5016 135.24 27.122 135.288 26.6961L129.327 26.0148ZM129.218 27.8379C129.218 29.6523 129.612 31.4777 130.749 32.9762L135.528 29.348C135.438 29.2293 135.218 28.8386 135.218 27.8379H129.218ZM130.725 32.9437C131.494 33.9856 132.5 34.8024 133.732 35.2952L135.96 29.7243C135.844 29.6781 135.712 29.5965 135.552 29.3806L130.725 32.9437ZM133.753 35.3035C134.866 35.7392 136.061 35.9141 137.271 35.9141V29.9141C136.625 29.9141 136.203 29.8194 135.939 29.716L133.753 35.3035ZM137.271 35.9141H141.651V29.9141H137.271V35.9141ZM158.542 37.3164V40.3164H161.251L161.526 37.6209L158.542 37.3164ZM154.903 37.3164V34.3164H152.165L151.916 37.0432L154.903 37.3164ZM154.566 41L151.579 40.7267L151.577 40.7437L151.576 40.7608L154.566 41ZM154.342 41.8311L151.846 40.167L151.767 40.2844L151.7 40.4088L154.342 41.8311ZM153.915 42.3701V45.3701H155.082L155.942 44.5816L153.915 42.3701ZM148.906 42.3701L146.538 40.5283L142.772 45.3701H148.906V42.3701ZM149.378 41.6514L152.061 42.993L152.082 42.9511L152.102 42.9085L149.378 41.6514ZM149.558 41L152.534 41.3721L152.541 41.3208L152.546 41.2692L149.558 41ZM151.399 20.5605V17.5605H148.658L148.412 20.2913L151.399 20.5605ZM156.363 20.5605L159.352 20.8214L159.637 17.5605H156.363V20.5605ZM155.285 32.9141L152.297 32.6532L152.012 35.9141H155.285V32.9141ZM158.991 32.9141L161.976 33.2186L162.313 29.9141H158.991V32.9141ZM158.542 34.3164H154.903V40.3164H158.542V34.3164ZM151.916 37.0432L151.579 40.7267L157.554 41.2733L157.891 37.5897L151.916 37.0432ZM151.576 40.7608C151.571 40.817 151.569 40.7898 151.592 40.7058C151.613 40.6274 151.677 40.4196 151.846 40.167L156.838 43.4952C157.38 42.6824 157.512 41.7962 157.557 41.2392L151.576 40.7608ZM151.7 40.4088C151.77 40.2791 151.845 40.1976 151.888 40.1587L155.942 44.5816C156.344 44.2132 156.704 43.7723 156.983 43.2534L151.7 40.4088ZM153.915 39.3701H148.906V45.3701H153.915V39.3701ZM151.274 44.2119C151.556 43.8503 151.838 43.4394 152.061 42.993L146.695 40.3097C146.705 40.2898 146.701 40.2998 146.673 40.3423C146.646 40.3837 146.603 40.4453 146.538 40.5283L151.274 44.2119ZM152.102 42.9085C152.336 42.4008 152.471 41.8799 152.534 41.3721L146.581 40.6279C146.584 40.5993 146.599 40.5126 146.654 40.3942L152.102 42.9085ZM152.546 41.2692L154.387 20.8298L148.412 20.2913L146.57 40.7308L152.546 41.2692ZM151.399 23.5605H156.363V17.5605H151.399V23.5605ZM153.375 20.2997L152.297 32.6532L158.274 33.1749L159.352 20.8214L153.375 20.2997ZM155.285 35.9141H158.991V29.9141H155.285V35.9141ZM156.007 32.6095L155.557 37.0119L161.526 37.6209L161.976 33.2186L156.007 32.6095ZM155.263 32.9141V29.9141H152.526L152.275 32.6397L155.263 32.9141ZM167.818 32.9141L170.806 33.1884L171.106 29.9141H167.818V32.9141ZM167.414 37.3164V40.3164H170.151L170.401 37.5908L167.414 37.3164ZM154.858 37.3164L151.871 37.042L151.57 40.3164H154.858V37.3164ZM155.263 35.9141H167.818V29.9141H155.263V35.9141ZM164.831 32.6397L164.427 37.042L170.401 37.5908L170.806 33.1884L164.831 32.6397ZM167.414 34.3164H154.858V40.3164H167.414V34.3164ZM157.846 37.5908L158.25 33.1884L152.275 32.6397L151.871 37.042L157.846 37.5908ZM162.54 32.9141V29.9141H159.803L159.553 32.6397L162.54 32.9141ZM175.096 32.9141L178.083 33.1884L178.384 29.9141H175.096V32.9141ZM174.691 37.3164V40.3164H177.429L177.679 37.5908L174.691 37.3164ZM162.136 37.3164L159.148 37.042L158.848 40.3164H162.136V37.3164ZM162.54 35.9141H175.096V29.9141H162.54V35.9141ZM172.108 32.6397L171.704 37.042L177.679 37.5908L178.083 33.1884L172.108 32.6397ZM174.691 34.3164H162.136V40.3164H174.691V34.3164ZM165.123 37.5908L165.527 33.1884L159.553 32.6397L159.148 37.042L165.123 37.5908ZM182.373 7.37598L181.155 10.1174L181.198 10.1365L181.241 10.1543L182.373 7.37598ZM181.295 6.65723L179.123 8.72619L179.173 8.77918L179.226 8.82964L181.295 6.65723ZM180.576 5.5791L177.798 6.71099L177.816 6.75454L177.835 6.79752L180.576 5.5791ZM180.576 2.97363L177.835 1.75522L177.816 1.79819L177.798 1.84174L180.576 2.97363ZM181.295 1.91797L179.226 -0.254445L179.199 -0.229218L179.174 -0.203351L181.295 1.91797ZM182.373 1.22168L183.505 3.99996L183.548 3.98221L183.591 3.96311L182.373 1.22168ZM184.979 1.22168L183.76 3.96311L183.803 3.98221L183.847 3.99996L184.979 1.22168ZM186.034 6.65723L188.156 8.77855L188.181 8.75268L188.207 8.72619L186.034 6.65723ZM184.979 7.37598L186.11 10.1543L186.154 10.1365L186.197 10.1174L184.979 7.37598ZM184.013 24.8057V27.8057H186.765L187.002 25.064L184.013 24.8057ZM184.17 22.9863L181.183 22.7097L181.182 22.7189L181.181 22.728L184.17 22.9863ZM184.484 18.7412H181.484V18.8245L181.489 18.9076L184.484 18.7412ZM183.294 17.4609L183.5 14.468L183.397 14.4609H183.294V17.4609ZM181.879 17.8203L183.336 20.4428L183.372 20.4225L183.408 20.4012L181.879 17.8203ZM179.521 21.6387L182.497 22.0108L182.499 21.9997L179.521 21.6387ZM179.498 22.9414L176.503 23.1176L176.509 23.2158L176.521 23.3135L179.498 22.9414ZM179.857 23.75L177.4 25.4704L177.433 25.5185L177.469 25.5653L179.857 23.75ZM183.227 32.9141V35.9141H185.924L186.21 33.2323L183.227 32.9141ZM183.406 31.2295L186.389 31.5477L186.39 31.5378L186.391 31.528L183.406 31.2295ZM183.608 29.208L186.594 29.5065L186.923 26.208H183.608V29.208ZM176.421 27.6582L174.524 29.9822L174.538 29.9939L174.553 30.0055L176.421 27.6582ZM174.602 21.3018L177.583 21.6331L177.587 21.5998L177.59 21.5665L174.602 21.3018ZM175.567 17.9551L178.235 19.3271L175.567 17.9551ZM177.611 15.2148L179.672 17.3948L179.683 17.385L179.693 17.3751L177.611 15.2148ZM186.304 13.3281L184.7 15.8634L184.711 15.8706L184.723 15.8778L186.304 13.3281ZM188.123 15.2598L185.51 16.7328L185.526 16.7612L185.542 16.7892L188.123 15.2598ZM189.044 17.8203L186.077 18.2653L186.081 18.2935L186.086 18.3216L189.044 17.8203ZM189.201 21.7959L192.188 22.0735L192.189 22.0628L192.19 22.0521L189.201 21.7959ZM188.64 27.8379L185.653 27.5603L185.652 27.5618L188.64 27.8379ZM187.764 37.3164V40.3164H190.499L190.751 37.5925L187.764 37.3164ZM171.727 37.3164L168.739 37.042L168.438 40.3164H171.727V37.3164ZM172.131 32.9141V29.9141H169.394L169.143 32.6397L172.131 32.9141ZM183.676 4.62305C183.575 4.62305 183.527 4.60689 183.505 4.5977L181.241 10.1543C182.027 10.4745 182.848 10.623 183.676 10.623V4.62305ZM183.591 4.63454C183.495 4.59174 183.425 4.5428 183.364 4.48481L179.226 8.82964C179.794 9.37061 180.442 9.80084 181.155 10.1174L183.591 4.63454ZM183.467 4.58826C183.409 4.52737 183.36 4.45699 183.318 4.36069L177.835 6.79752C178.151 7.5098 178.582 8.15818 179.123 8.72619L183.467 4.58826ZM183.354 4.44721C183.345 4.42465 183.329 4.37734 183.329 4.27637H177.329C177.329 5.10378 177.478 5.92496 177.798 6.71099L183.354 4.44721ZM183.329 4.27637C183.329 4.17539 183.345 4.12808 183.354 4.10552L177.798 1.84174C177.478 2.62778 177.329 3.44896 177.329 4.27637H183.329ZM183.318 4.19205C183.355 4.10899 183.389 4.06687 183.416 4.03929L179.174 -0.203351C178.602 0.368022 178.157 1.02968 177.835 1.75522L183.318 4.19205ZM183.364 4.09038C183.405 4.0511 183.446 4.02387 183.505 3.99996L181.241 -1.5566C180.491 -1.25108 179.814 -0.814117 179.226 -0.254445L183.364 4.09038ZM183.591 3.96311C183.593 3.96226 183.61 3.95215 183.676 3.95215V-2.04785C182.813 -2.04785 181.961 -1.87828 181.155 -1.51976L183.591 3.96311ZM183.676 3.95215C183.741 3.95215 183.758 3.96226 183.76 3.96311L186.197 -1.51976C185.39 -1.87828 184.539 -2.04785 183.676 -2.04785V3.95215ZM183.847 3.99996C183.892 4.01856 183.905 4.03131 183.913 4.03929L188.156 -0.203351C187.565 -0.794329 186.873 -1.24577 186.11 -1.5566L183.847 3.99996ZM183.913 4.03929C183.94 4.06687 183.975 4.10899 184.011 4.19205L189.494 1.75522C189.172 1.02968 188.727 0.368022 188.156 -0.203351L183.913 4.03929ZM184.011 4.19205C184.012 4.19396 184.022 4.21085 184.022 4.27637H190.022C190.022 3.4135 189.853 2.5619 189.494 1.75522L184.011 4.19205ZM184.022 4.27637C184.022 4.34189 184.012 4.35877 184.011 4.36069L189.494 6.79752C189.853 5.99084 190.022 5.13923 190.022 4.27637H184.022ZM184.011 4.36069C183.969 4.45699 183.92 4.52737 183.862 4.58826L188.207 8.72619C188.748 8.15818 189.178 7.5098 189.494 6.79752L184.011 4.36069ZM183.913 4.53591C183.885 4.56349 183.843 4.59763 183.76 4.63454L186.197 10.1174C186.922 9.79495 187.584 9.34992 188.156 8.77855L183.913 4.53591ZM183.847 4.5977C183.824 4.60689 183.777 4.62305 183.676 4.62305V10.623C184.503 10.623 185.324 10.4745 186.11 10.1543L183.847 4.5977ZM187.002 25.064L187.159 23.2446L181.181 22.728L181.024 24.5474L187.002 25.064ZM187.157 23.2629C187.23 22.4749 187.302 21.7936 187.372 21.2157L181.417 20.4894C181.337 21.1394 181.259 21.8806 181.183 22.7097L187.157 23.2629ZM187.372 21.2157C187.456 20.5273 187.507 19.8748 187.507 19.2803H181.507C181.507 19.5543 181.482 19.9499 181.417 20.4894L187.372 21.2157ZM187.507 19.2803C187.507 19.0932 187.494 18.8303 187.48 18.5748L181.489 18.9076C181.496 19.0347 181.501 19.132 181.504 19.203C181.507 19.2837 181.507 19.3002 181.507 19.2803H187.507ZM187.484 18.7412C187.484 17.7851 187.172 16.938 186.711 16.2461L181.719 19.5743C181.617 19.4214 181.484 19.1283 181.484 18.7412H187.484ZM186.711 16.2461C185.851 14.9554 184.519 14.5383 183.5 14.468L183.088 20.4538C183.021 20.4492 182.809 20.4259 182.535 20.292C182.237 20.1468 181.94 19.9066 181.719 19.5743L186.711 16.2461ZM183.294 14.4609H183.137V20.4609H183.294V14.4609ZM183.137 14.4609C182.12 14.4609 181.177 14.7488 180.35 15.2394L183.408 20.4012C183.406 20.4023 183.377 20.4194 183.321 20.4354C183.263 20.4517 183.2 20.4609 183.137 20.4609V14.4609ZM180.422 15.1978C179.645 15.6297 178.992 16.2064 178.453 16.8687L183.104 20.6587C183.223 20.5124 183.305 20.4602 183.336 20.4428L180.422 15.1978ZM178.453 16.8687C177.943 17.4947 177.528 18.1844 177.203 18.9229L182.692 21.3447C182.815 21.0649 182.955 20.8413 183.104 20.6587L178.453 16.8687ZM177.203 18.9229C176.873 19.6708 176.642 20.458 176.542 21.2777L182.499 21.9997C182.519 21.8311 182.573 21.615 182.692 21.3447L177.203 18.9229ZM176.544 21.2666C176.499 21.6205 176.476 21.9771 176.476 22.335H182.476C182.476 22.2436 182.482 22.136 182.497 22.0108L176.544 21.2666ZM176.476 22.335C176.476 22.5701 176.487 22.8389 176.503 23.1176L182.493 22.7652C182.479 22.5348 182.476 22.3993 182.476 22.335H176.476ZM176.521 23.3135C176.635 24.2241 177.042 24.959 177.4 25.4704L182.315 22.0296C182.296 22.0019 182.317 22.0277 182.352 22.1048C182.386 22.1818 182.446 22.3407 182.475 22.5693L176.521 23.3135ZM177.469 25.5653C178.053 26.3332 178.819 26.9539 179.759 27.3369L182.023 21.7803C182.078 21.8029 182.132 21.8344 182.178 21.8704C182.223 21.9056 182.244 21.9324 182.246 21.9347L177.469 25.5653ZM179.759 27.3369C180.605 27.6816 181.486 27.8057 182.328 27.8057V21.8057C182.062 21.8057 181.985 21.765 182.023 21.7803L179.759 27.3369ZM182.328 27.8057H184.013V21.8057H182.328V27.8057ZM186.21 33.2323L186.389 31.5477L180.423 30.9113L180.243 32.5959L186.21 33.2323ZM186.391 31.528L186.594 29.5065L180.623 28.9095L180.421 30.931L186.391 31.528ZM183.608 26.208H183.159V32.208H183.608V26.208ZM183.159 26.208C181.821 26.208 180.712 26.106 179.809 25.9279L178.648 31.8143C180.021 32.0854 181.533 32.208 183.159 32.208V26.208ZM179.809 25.9279C179.032 25.7745 178.569 25.5336 178.289 25.3109L174.553 30.0055C175.74 30.9507 177.149 31.5185 178.648 31.8143L179.809 25.9279ZM178.318 25.3342C178.009 25.0822 177.86 24.8392 177.777 24.5761L172.055 26.3829C172.511 27.8268 173.365 29.0363 174.524 29.9822L178.318 25.3342ZM177.777 24.5761C177.603 24.0256 177.512 23.4401 177.512 22.8066H171.512C171.512 24.03 171.69 25.2263 172.055 26.3829L177.777 24.5761ZM177.512 22.8066C177.512 22.4697 177.534 22.0799 177.583 21.6331L171.62 20.9705C171.55 21.6017 171.512 22.2152 171.512 22.8066H177.512ZM177.59 21.5665C177.661 20.7669 177.875 20.0277 178.235 19.3271L172.9 16.583C172.182 17.9788 171.752 19.4707 171.613 21.037L177.59 21.5665ZM178.235 19.3271C178.625 18.5684 179.105 17.9311 179.672 17.3948L175.55 13.0349C174.47 14.0558 173.587 15.2454 172.9 16.583L178.235 19.3271ZM179.693 17.3751C180.263 16.8255 180.906 16.3936 181.634 16.0712L179.204 10.5851C177.836 11.191 176.606 12.0169 175.53 13.0546L179.693 17.3751ZM181.634 16.0712C182.302 15.7751 182.982 15.6318 183.698 15.6318V9.63184C182.139 9.63184 180.632 9.95274 179.204 10.5851L181.634 16.0712ZM183.698 15.6318C184.224 15.6318 184.517 15.7476 184.7 15.8634L187.908 10.7929C186.623 9.98024 185.179 9.63184 183.698 9.63184V15.6318ZM184.723 15.8778C185.011 16.0564 185.275 16.3162 185.51 16.7328L190.736 13.7867C190.043 12.5562 189.094 11.5282 187.885 10.7784L184.723 15.8778ZM185.542 16.7892C185.831 17.2764 186.002 17.7632 186.077 18.2653L192.011 17.3753C191.817 16.0806 191.374 14.8604 190.704 13.7304L185.542 16.7892ZM186.086 18.3216C186.213 19.0706 186.269 19.7168 186.269 20.2686H192.269C192.269 19.323 192.174 18.3369 192.002 17.319L186.086 18.3216ZM186.269 20.2686C186.269 20.6719 186.25 21.0954 186.212 21.5397L192.19 22.0521C192.242 21.4482 192.269 20.8535 192.269 20.2686H186.269ZM186.214 21.5183L185.653 27.5603L191.627 28.1155L192.188 22.0735L186.214 21.5183ZM185.652 27.5618L184.776 37.0403L190.751 37.5925L191.627 28.114L185.652 27.5618ZM187.764 34.3164H171.727V40.3164H187.764V34.3164ZM174.714 37.5908L175.118 33.1884L169.143 32.6397L168.739 37.042L174.714 37.5908ZM172.131 35.9141H183.227V29.9141H172.131V35.9141Z" fill="white" mask="url(#path-1-outside-1_1212_3116)"/>
</svg>
