<svg width="16" height="16" viewBox="0 0 16 16" fill="none" xmlns="http://www.w3.org/2000/svg">
<g clip-path="url(#clip0_1212_3223)">
<path d="M0 11.9999C0 12.4714 0.187301 12.9236 0.520699 13.257C0.854097 13.5904 1.30628 13.7777 1.77778 13.7777H14.2222C14.6937 13.7777 15.1459 13.5904 15.4793 13.257C15.8127 12.9236 16 12.4714 16 11.9999V10.2222H0V11.9999Z" fill="#DA0001"/>
<path d="M0 5.77783H16V10.2223H0V5.77783Z" fill="#EEEEEE"/>
<path d="M16 5.77772V3.99995C16 3.52845 15.8127 3.07627 15.4793 2.74287C15.1459 2.40947 14.6937 2.22217 14.2222 2.22217H1.77778C1.30628 2.22217 0.854097 2.40947 0.520699 2.74287C0.187301 3.07627 0 3.52845 0 3.99995L0 5.77772H16Z" fill="#239F40"/>
<path d="M0 10.2222H16V10.6666H0V10.2222Z" fill="#E96667"/>
<path d="M8.65111 6.65292C9.07644 6.87069 10.0013 7.96536 9.00578 9.20003C9.624 9.06314 10.4111 7.24092 8.65111 6.65292ZM7.34578 6.65292C5.58622 7.24092 6.37289 9.06314 6.99111 9.20003C5.99555 7.96536 6.92044 6.87069 7.34578 6.65292ZM7.99155 6.58936C8.00933 6.67692 8.48089 6.78314 8.42444 6.33469C8.34978 6.51603 8.13378 6.51069 7.99422 6.42669C7.80222 6.53381 7.62311 6.50758 7.55511 6.32581C7.48933 6.66092 7.816 6.75914 7.99155 6.58936Z" fill="#BE1931"/>
<path d="M9.12799 7.95739C9.12132 7.40272 8.8271 6.91206 8.53732 6.71339C8.72843 6.94761 9.31599 8.2405 8.18843 9.09161L8.20932 6.82628L7.99821 6.6405L7.7871 6.81739L7.82265 9.1045L7.81466 9.09784C6.67554 8.24717 7.26665 6.94806 7.45821 6.71339C7.16843 6.91206 6.87377 7.40272 6.86754 7.95739C6.86177 8.43339 7.07954 8.95428 7.68265 9.38184C7.43913 9.44458 7.18833 9.47462 6.93688 9.47117C7.1431 9.58361 7.53243 9.5565 7.82888 9.52939L7.82932 9.55961L8.00621 9.75384L8.18399 9.55161V9.5285C8.48265 9.55606 8.88043 9.58584 9.09021 9.47161C8.83047 9.47591 8.57139 9.44405 8.32043 9.37695C8.91777 8.94984 9.13377 8.43161 9.12799 7.95739Z" fill="#BE1931"/>
<path d="M0 5.33337H16V5.77782H0V5.33337Z" fill="#7BC58C"/>
</g>
<defs>
<clipPath id="clip0_1212_3223">
<rect width="16" height="16" fill="white"/>
</clipPath>
</defs>
</svg>
