<svg width="142" height="142" viewBox="0 0 142 142" fill="none" xmlns="http://www.w3.org/2000/svg">
<path d="M90.8484 134.354L94.2306 136.593C97.4115 138.698 101.697 137.827 103.802 134.646L117.362 114.161C119.468 110.98 118.596 106.695 115.415 104.589L112.033 102.351C108.852 100.245 104.567 101.117 102.461 104.298L88.9015 124.782C86.7961 127.963 87.6676 132.249 90.8484 134.354Z" fill="#F2A74E"/>
<path d="M43.8517 45.8874C56.1655 27.2848 73.2007 13.2792 79.8603 17.6876C80.666 18.2209 81.2811 19.0014 81.7216 19.9907C81.754 20.0434 81.7856 20.0969 81.8148 20.1546C86.3748 29.2337 127.646 72.7237 137.246 82.0047C138.344 83.0643 139.101 84.427 139.42 85.9189C140.292 89.9967 141.131 98.5164 135.751 106.644C130.332 114.831 121.89 117.349 117.722 118.112C116.241 118.385 114.712 118.218 113.324 117.632C101.135 112.476 45.0601 91.575 34.9617 90.9271C34.6566 90.9075 34.3637 90.8684 34.0811 90.8145C33.2918 90.7125 32.5804 90.462 31.9594 90.0507C31.6292 89.8306 31.3285 89.569 31.0647 89.2725C30.4991 88.7103 30.0642 88.0304 29.7909 87.2812C29.868 87.4116 29.9558 87.5354 30.0536 87.6512C26.9537 80.3956 33.0766 62.1652 43.8517 45.8874Z" fill="#FFB636"/>
<path d="M47.3573 48.2082C36.6072 64.4483 30.7195 82.6224 35.9879 86.11C41.2566 89.5976 55.6865 77.078 66.4366 60.8379C77.1867 44.5977 83.0745 26.4237 77.806 22.9361C72.5376 19.4485 58.1077 31.9678 47.3573 48.2082Z" fill="#CC883E"/>
<path d="M123.508 91.204C124.194 91.2048 124.873 91.0674 125.505 90.7999C126.137 90.5324 126.709 90.1403 127.186 89.6469C129.156 87.6157 129.106 84.3721 127.074 82.403L115.111 70.805C113.079 68.8356 109.836 68.8858 107.867 70.9174C105.898 72.9486 105.948 76.1919 107.979 78.1613L119.942 89.7593C120.897 90.6871 122.176 91.2055 123.508 91.204Z" fill="#FFD469"/>
<path d="M32.9202 36.3076L12.3917 15.975C11.52 15.1116 10.0784 15.2536 9.39197 16.2701L4.65633 23.2811C4.00402 24.2468 4.33461 25.565 5.36549 26.1086L30.6296 39.43C31.0446 39.6479 31.5241 39.7097 31.9808 39.6041C32.4376 39.4985 32.8412 39.2325 33.1185 38.8545C33.3958 38.4766 33.5283 38.0116 33.4919 37.5443C33.4555 37.0769 33.2526 36.6381 32.9202 36.3076ZM29.5252 53.7687C29.4482 54.1447 29.2351 54.4791 28.9267 54.7077C28.6183 54.9363 28.2364 55.0429 27.8542 55.0073L5.22627 52.895C5.00837 52.8747 4.7972 52.8087 4.60652 52.7013C4.41585 52.5939 4.24994 52.4475 4.11963 52.2716C3.98932 52.0958 3.89752 51.8945 3.85022 51.6809C3.80291 51.4672 3.80117 51.2459 3.8451 51.0315L5.19521 44.4363C5.39101 43.48 6.40776 42.9373 7.31134 43.307L28.5892 52.0147C28.9251 52.1522 29.2026 52.4026 29.3735 52.7229C29.5444 53.0431 29.598 53.413 29.5252 53.7687ZM46.4201 29.7571C46.0998 29.9685 45.7127 30.0543 45.333 29.9979C44.9533 29.9415 44.6078 29.7469 44.3628 29.4514L29.8561 11.9574C29.7164 11.789 29.6137 11.593 29.5549 11.3822C29.496 11.1715 29.4822 10.9507 29.5143 10.7342C29.5465 10.5178 29.6239 10.3105 29.7415 10.126C29.8591 9.94145 30.0143 9.78377 30.1969 9.66322L35.8151 5.9543C36.6296 5.41653 37.7326 5.75184 38.1098 6.6521L46.9981 27.855C47.1387 28.1897 47.1578 28.563 47.0523 28.9103C46.9467 29.2576 46.7231 29.5571 46.4201 29.7571Z" fill="#239D60"/>
</svg>
