<svg width="1113" height="81" viewBox="0 0 1113 81" fill="none" xmlns="http://www.w3.org/2000/svg">
<path d="M10.6279 13.4229C17.2874 6.4873 26.276 3.01953 37.5938 3.01953C48.9115 3.01953 57.8828 6.4873 64.5078 13.4229C71.1328 20.3584 74.4453 29.7783 74.4453 41.6826C74.4453 53.5869 71.1328 63.0068 64.5078 69.9424C57.8828 76.8434 48.9115 80.2939 37.5938 80.2939C26.2415 80.2939 17.2529 76.8434 10.6279 69.9424C4.00293 63.0068 0.69043 53.5869 0.69043 41.6826C0.69043 29.7783 4.00293 20.3584 10.6279 13.4229ZM50.3262 24.7578C47.1517 20.5482 42.9076 18.4434 37.5938 18.4434C32.2799 18.4434 28.0186 20.5482 24.8096 24.7578C21.6351 28.9329 20.0479 34.5745 20.0479 41.6826C20.0479 48.7562 21.6351 54.3978 24.8096 58.6074C27.984 62.7826 32.2454 64.8701 37.5938 64.8701C42.9076 64.8701 47.1517 62.7826 50.3262 58.6074C53.5352 54.3978 55.1396 48.7562 55.1396 41.6826C55.1396 34.5745 53.5352 28.9329 50.3262 24.7578ZM137.435 22.6357V79H119.63V68.3379H119.268C116.576 76.1706 111.107 80.0869 102.86 80.0869C96.7184 80.0869 91.7324 78.1891 87.9023 74.3936C84.1068 70.598 82.209 65.4222 82.209 58.8662V22.6357H100.583V54.8809C100.583 58.1934 101.394 60.7295 103.016 62.4893C104.637 64.249 106.897 65.1289 109.796 65.1289C112.625 65.1289 114.885 64.1628 116.576 62.2305C118.267 60.2982 119.112 57.7275 119.112 54.5186V22.6357H137.435ZM146.337 79V22.6357H164.193V33.2979H164.556C166.626 25.6377 171.043 21.8076 177.806 21.8076C179.634 21.8076 181.187 22.0492 182.464 22.5322V38.1631C180.739 37.473 178.789 37.1279 176.615 37.1279C172.751 37.1279 169.8 38.1803 167.765 40.2852C165.729 42.39 164.711 45.4092 164.711 49.3428V79H146.337ZM245.557 79H209.896V4.31348H244.625C251.975 4.31348 257.737 5.96973 261.912 9.28223C266.087 12.5947 268.175 17.1494 268.175 22.9463C268.175 27.0869 266.777 30.6755 263.982 33.7119C261.222 36.7484 257.754 38.5599 253.579 39.1465V39.5605C258.686 39.8021 262.965 41.6136 266.415 44.9951C269.9 48.3766 271.643 52.5345 271.643 57.4688C271.643 64.0247 269.279 69.2523 264.552 73.1514C259.859 77.0505 253.527 79 245.557 79ZM228.891 17.7705V34.7471H238.673C242.123 34.7471 244.815 33.988 246.747 32.4697C248.714 30.917 249.697 28.7949 249.697 26.1035C249.697 23.4811 248.8 21.4453 247.006 19.9961C245.246 18.5124 242.779 17.7705 239.604 17.7705H228.891ZM228.891 65.543H240.174C244.107 65.543 247.109 64.7148 249.18 63.0586C251.285 61.3678 252.337 58.9525 252.337 55.8125C252.337 52.776 251.267 50.4297 249.128 48.7734C246.989 47.1172 243.969 46.2891 240.07 46.2891H228.891V65.543ZM333.39 22.6357V79H315.585V68.3379H315.223C312.531 76.1706 307.062 80.0869 298.815 80.0869C292.674 80.0869 287.688 78.1891 283.857 74.3936C280.062 70.598 278.164 65.4222 278.164 58.8662V22.6357H296.538V54.8809C296.538 58.1934 297.349 60.7295 298.971 62.4893C300.592 64.249 302.853 65.1289 305.751 65.1289C308.58 65.1289 310.84 64.1628 312.531 62.2305C314.222 60.2982 315.067 57.7275 315.067 54.5186V22.6357H333.39ZM341.36 39.7158C341.36 34.057 343.603 29.5713 348.089 26.2588C352.609 22.9463 358.751 21.29 366.515 21.29C374.175 21.29 380.248 22.998 384.733 26.4141C389.219 29.7956 391.496 34.402 391.565 40.2334H374.796C374.727 38.1976 373.933 36.5931 372.415 35.4199C370.897 34.2467 368.878 33.6602 366.359 33.6602C364.117 33.6602 362.322 34.1087 360.977 35.0059C359.631 35.903 358.958 37.0762 358.958 38.5254C358.958 40.8027 361.063 42.3727 365.272 43.2354L377.073 45.6162C382.698 46.8239 386.769 48.6527 389.288 51.1025C391.841 53.5179 393.118 56.8649 393.118 61.1436C393.118 66.9749 390.703 71.6331 385.872 75.1182C381.041 78.6032 374.675 80.3457 366.773 80.3457C358.665 80.3457 352.264 78.6377 347.571 75.2217C342.913 71.8057 340.394 67.1647 340.015 61.2988H357.819C358.095 63.4036 359.027 65.0426 360.614 66.2158C362.236 67.389 364.393 67.9756 367.084 67.9756C369.534 67.9756 371.449 67.5615 372.829 66.7334C374.244 65.8708 374.951 64.6976 374.951 63.2139C374.951 62.0752 374.485 61.1608 373.554 60.4707C372.622 59.7461 371.052 59.1595 368.844 58.7109L358.182 56.4854C352.661 55.3122 348.468 53.3109 345.604 50.4814C342.775 47.6175 341.36 44.029 341.36 39.7158ZM399.795 79V22.6357H418.117V79H399.795ZM415.633 15.4932C413.839 17.2184 411.613 18.0811 408.956 18.0811C406.299 18.0811 404.056 17.2184 402.228 15.4932C400.433 13.7679 399.536 11.6286 399.536 9.0752C399.536 6.55632 400.433 4.43424 402.228 2.70898C404.056 0.983724 406.299 0.121094 408.956 0.121094C411.613 0.121094 413.839 0.983724 415.633 2.70898C417.427 4.39974 418.324 6.52181 418.324 9.0752C418.324 11.6286 417.427 13.7679 415.633 15.4932ZM427.071 79V22.6357H444.928V33.2461H445.29C446.739 29.4505 448.93 26.5521 451.863 24.5508C454.831 22.5495 458.454 21.5488 462.732 21.5488C468.978 21.5488 473.791 23.4121 477.173 27.1387C480.589 30.8652 482.297 36.0928 482.297 42.8213V79H463.975V46.7549C463.975 43.5114 463.198 40.9925 461.646 39.1982C460.127 37.404 457.884 36.5068 454.917 36.5068C452.019 36.5068 449.707 37.4902 447.981 39.457C446.291 41.4238 445.445 43.9772 445.445 47.1172V79H427.071ZM517.596 34.333C514.801 34.333 512.437 35.2819 510.505 37.1797C508.607 39.043 507.537 41.4411 507.296 44.374H527.792C527.619 41.3721 526.602 38.9567 524.738 37.1279C522.875 35.2646 520.494 34.333 517.596 34.333ZM528.206 61.1953H544.769C543.871 67.0267 541.007 71.6849 536.177 75.1699C531.346 78.6204 525.256 80.3457 517.906 80.3457C508.935 80.3457 501.913 77.7578 496.841 72.582C491.769 67.3717 489.232 60.2119 489.232 51.1025C489.232 41.9932 491.751 34.7471 496.789 29.3643C501.861 23.9814 508.693 21.29 517.285 21.29C525.773 21.29 532.519 23.8607 537.522 29.002C542.56 34.1432 545.079 41.027 545.079 49.6533V54.8291H507.037V55.9678C507.037 59.3493 508.055 62.0924 510.091 64.1973C512.161 66.3021 514.853 67.3545 518.165 67.3545C520.615 67.3545 522.737 66.8024 524.531 65.6982C526.326 64.5941 527.55 63.0931 528.206 61.1953ZM551.29 39.7158C551.29 34.057 553.533 29.5713 558.019 26.2588C562.539 22.9463 568.681 21.29 576.444 21.29C584.104 21.29 590.177 22.998 594.663 26.4141C599.149 29.7956 601.426 34.402 601.495 40.2334H584.726C584.657 38.1976 583.863 36.5931 582.345 35.4199C580.826 34.2467 578.808 33.6602 576.289 33.6602C574.046 33.6602 572.252 34.1087 570.906 35.0059C569.561 35.903 568.888 37.0762 568.888 38.5254C568.888 40.8027 570.993 42.3727 575.202 43.2354L587.003 45.6162C592.627 46.8239 596.699 48.6527 599.218 51.1025C601.771 53.5179 603.048 56.8649 603.048 61.1436C603.048 66.9749 600.632 71.6331 595.802 75.1182C590.971 78.6032 584.605 80.3457 576.703 80.3457C568.594 80.3457 562.194 78.6377 557.501 75.2217C552.843 71.8057 550.324 67.1647 549.944 61.2988H567.749C568.025 63.4036 568.957 65.0426 570.544 66.2158C572.166 67.389 574.322 67.9756 577.014 67.9756C579.464 67.9756 581.379 67.5615 582.759 66.7334C584.174 65.8708 584.881 64.6976 584.881 63.2139C584.881 62.0752 584.415 61.1608 583.483 60.4707C582.552 59.7461 580.982 59.1595 578.773 58.7109L568.111 56.4854C562.59 55.3122 558.398 53.3109 555.534 50.4814C552.705 47.6175 551.29 44.029 551.29 39.7158ZM608.638 39.7158C608.638 34.057 610.881 29.5713 615.366 26.2588C619.886 22.9463 626.028 21.29 633.792 21.29C641.452 21.29 647.525 22.998 652.011 26.4141C656.496 29.7956 658.774 34.402 658.843 40.2334H642.073C642.004 38.1976 641.211 36.5931 639.692 35.4199C638.174 34.2467 636.156 33.6602 633.637 33.6602C631.394 33.6602 629.6 34.1087 628.254 35.0059C626.908 35.903 626.235 37.0762 626.235 38.5254C626.235 40.8027 628.34 42.3727 632.55 43.2354L644.351 45.6162C649.975 46.8239 654.047 48.6527 656.565 51.1025C659.119 53.5179 660.396 56.8649 660.396 61.1436C660.396 66.9749 657.98 71.6331 653.149 75.1182C648.319 78.6032 641.952 80.3457 634.051 80.3457C625.942 80.3457 619.541 78.6377 614.849 75.2217C610.19 71.8057 607.672 67.1647 607.292 61.2988H625.097C625.373 63.4036 626.304 65.0426 627.892 66.2158C629.513 67.389 631.67 67.9756 634.361 67.9756C636.811 67.9756 638.726 67.5615 640.106 66.7334C641.521 65.8708 642.229 64.6976 642.229 63.2139C642.229 62.0752 641.763 61.1608 640.831 60.4707C639.899 59.7461 638.329 59.1595 636.121 58.7109L625.459 56.4854C619.938 55.3122 615.746 53.3109 612.882 50.4814C610.052 47.6175 608.638 44.029 608.638 39.7158ZM688.759 4.31348H721.107C729.147 4.31348 735.634 6.72884 740.568 11.5596C745.537 16.3558 748.021 22.7565 748.021 30.7617C748.021 38.6979 745.434 45.0814 740.258 49.9121C735.082 54.7083 728.319 57.1064 719.969 57.1064H707.754V79H688.759V4.31348ZM707.754 18.8574V42.8213H715.983C720.055 42.8213 723.212 41.7861 725.455 39.7158C727.698 37.6455 728.819 34.6781 728.819 30.8135C728.819 26.9489 727.698 23.9987 725.455 21.9629C723.247 19.8926 720.124 18.8574 716.087 18.8574H707.754ZM775.453 67.1992C778.317 67.1992 780.767 66.4056 782.803 64.8184C784.873 63.2311 785.908 61.2126 785.908 58.7627V54.8809L775.66 55.5537C773.279 55.7262 771.433 56.3473 770.122 57.417C768.811 58.4521 768.155 59.7979 768.155 61.4541C768.155 63.2139 768.811 64.6113 770.122 65.6465C771.468 66.6816 773.245 67.1992 775.453 67.1992ZM768.932 79.8281C763.618 79.8281 759.132 78.2236 755.475 75.0146C751.817 71.8057 749.988 67.6995 749.988 62.6963C749.988 57.4515 751.938 53.3626 755.837 50.4297C759.736 47.4967 765.36 45.806 772.71 45.3574L785.908 44.5811V41.3721C785.908 39.1637 785.184 37.4557 783.734 36.248C782.285 35.0059 780.336 34.3848 777.886 34.3848C775.47 34.3848 773.486 34.9541 771.934 36.0928C770.415 37.1969 769.518 38.6462 769.242 40.4404H752.731C753.007 34.609 755.475 29.9681 760.133 26.5176C764.791 23.0326 771.019 21.29 778.817 21.29C786.34 21.29 792.395 23.0498 796.984 26.5693C801.574 30.0544 803.868 34.6436 803.868 40.3369V79H786.012V70.9775H785.649C784.166 73.738 781.888 75.9118 778.817 77.499C775.746 79.0518 772.451 79.8281 768.932 79.8281ZM812.667 79V22.6357H830.523V33.2979H830.886C832.956 25.6377 837.373 21.8076 844.136 21.8076C845.965 21.8076 847.517 22.0492 848.794 22.5322V38.1631C847.069 37.473 845.119 37.1279 842.945 37.1279C839.081 37.1279 836.131 38.1803 834.095 40.2852C832.059 42.39 831.041 45.4092 831.041 49.3428V79H812.667ZM858.99 10.0068H877.364V22.6357H887.509V36.1445H877.364V59.7979C877.364 63.6969 879.521 65.6465 883.834 65.6465C885.352 65.6465 886.56 65.5602 887.457 65.3877V78.4307C885.283 78.8792 882.609 79.1035 879.435 79.1035C872.119 79.1035 866.875 77.8958 863.7 75.4805C860.56 73.0651 858.99 69.0798 858.99 63.5244V36.1445H851.33V22.6357H858.99V10.0068ZM895.065 79V22.6357H912.922V33.2461H913.284C914.733 29.4505 916.924 26.5521 919.857 24.5508C922.825 22.5495 926.448 21.5488 930.727 21.5488C936.972 21.5488 941.785 23.4121 945.167 27.1387C948.583 30.8652 950.291 36.0928 950.291 42.8213V79H931.969V46.7549C931.969 43.5114 931.192 40.9925 929.64 39.1982C928.121 37.404 925.879 36.5068 922.911 36.5068C920.013 36.5068 917.701 37.4902 915.976 39.457C914.285 41.4238 913.439 43.9772 913.439 47.1172V79H895.065ZM985.59 34.333C982.795 34.333 980.431 35.2819 978.499 37.1797C976.601 39.043 975.532 41.4411 975.29 44.374H995.786C995.614 41.3721 994.596 38.9567 992.732 37.1279C990.869 35.2646 988.488 34.333 985.59 34.333ZM996.2 61.1953H1012.76C1011.87 67.0267 1009 71.6849 1004.17 75.1699C999.34 78.6204 993.25 80.3457 985.9 80.3457C976.929 80.3457 969.907 77.7578 964.835 72.582C959.763 67.3717 957.227 60.2119 957.227 51.1025C957.227 41.9932 959.745 34.7471 964.783 29.3643C969.855 23.9814 976.688 21.29 985.279 21.29C993.768 21.29 1000.51 23.8607 1005.52 29.002C1010.55 34.1432 1013.07 41.027 1013.07 49.6533V54.8291H975.031V55.9678C975.031 59.3493 976.049 62.0924 978.085 64.1973C980.155 66.3021 982.847 67.3545 986.159 67.3545C988.609 67.3545 990.731 66.8024 992.525 65.6982C994.32 64.5941 995.545 63.0931 996.2 61.1953ZM1020.22 79V22.6357H1038.07V33.2979H1038.43C1040.5 25.6377 1044.92 21.8076 1051.68 21.8076C1053.51 21.8076 1055.07 22.0492 1056.34 22.5322V38.1631C1054.62 37.473 1052.67 37.1279 1050.49 37.1279C1046.63 37.1279 1043.68 38.1803 1041.64 40.2852C1039.61 42.39 1038.59 45.4092 1038.59 49.3428V79H1020.22ZM1061 39.7158C1061 34.057 1063.24 29.5713 1067.73 26.2588C1072.25 22.9463 1078.39 21.29 1086.16 21.29C1093.82 21.29 1099.89 22.998 1104.37 26.4141C1108.86 29.7956 1111.14 34.402 1111.21 40.2334H1094.44C1094.37 38.1976 1093.57 36.5931 1092.06 35.4199C1090.54 34.2467 1088.52 33.6602 1086 33.6602C1083.76 33.6602 1081.96 34.1087 1080.62 35.0059C1079.27 35.903 1078.6 37.0762 1078.6 38.5254C1078.6 40.8027 1080.7 42.3727 1084.91 43.2354L1096.71 45.6162C1102.34 46.8239 1106.41 48.6527 1108.93 51.1025C1111.48 53.5179 1112.76 56.8649 1112.76 61.1436C1112.76 66.9749 1110.34 71.6331 1105.51 75.1182C1100.68 78.6032 1094.32 80.3457 1086.41 80.3457C1078.31 80.3457 1071.9 78.6377 1067.21 75.2217C1062.55 71.8057 1060.03 67.1647 1059.66 61.2988H1077.46C1077.74 63.4036 1078.67 65.0426 1080.25 66.2158C1081.88 67.389 1084.03 67.9756 1086.72 67.9756C1089.17 67.9756 1091.09 67.5615 1092.47 66.7334C1093.88 65.8708 1094.59 64.6976 1094.59 63.2139C1094.59 62.0752 1094.13 61.1608 1093.19 60.4707C1092.26 59.7461 1090.69 59.1595 1088.48 58.7109L1077.82 56.4854C1072.3 55.3122 1068.11 53.3109 1065.25 50.4814C1062.42 47.6175 1061 44.029 1061 39.7158Z" fill="url(#paint0_linear_1212_3258)"/>
<defs>
<linearGradient id="paint0_linear_1212_3258" x1="556" y1="-47" x2="556" y2="97.5" gradientUnits="userSpaceOnUse">
<stop stop-color="#B2B2B2" stop-opacity="0.61"/>
<stop offset="1" stop-color="#FAFAFA" stop-opacity="0"/>
</linearGradient>
</defs>
</svg>
