<svg width="57" height="56" viewBox="0 0 57 56" fill="none" xmlns="http://www.w3.org/2000/svg">
<path d="M20.3333 36.7288C20.3333 34.4341 21.9868 32.4796 24.2339 32.1179C27.0601 31.6631 29.9399 31.6631 32.7661 32.1179C35.0132 32.4796 36.6666 34.4341 36.6666 36.7288V37.2368C36.6666 38.5788 35.5878 39.6666 34.257 39.6666H22.7429C21.4121 39.6666 20.3333 38.5788 20.3333 37.2368V36.7288Z" stroke="#239D60" stroke-width="1.5"/>
<path d="M33.2639 21.1372C33.2639 23.7904 31.131 25.9412 28.5 25.9412C25.869 25.9412 23.7361 23.7904 23.7361 21.1372C23.7361 18.4841 25.869 16.3333 28.5 16.3333C31.131 16.3333 33.2639 18.4841 33.2639 21.1372Z" stroke="#239D60" stroke-width="1.5"/>
<path d="M49.5 16.3333C49.5 11.1787 44.2767 7 37.8333 7M7.5 37.3333C7.5 43.7767 11.6787 49 16.8333 49M16.8333 7C11.6787 7 7.5 11.1787 7.5 16.3333M37.8333 49C44.2767 49 49.5 43.7767 49.5 37.3333" stroke="#212125" stroke-width="1.5" stroke-linecap="round"/>
</svg>
