<svg width="20" height="16" viewBox="0 0 20 16" fill="none" xmlns="http://www.w3.org/2000/svg">
<path d="M19.8715 3.81143C19.8715 2.05339 18.5784 0.639153 16.9805 0.639153C14.8162 0.537969 12.6089 0.498901 10.3531 0.498901H9.64989C7.39961 0.498901 5.18839 0.537969 3.02406 0.639544C1.43011 0.639544 0.136974 2.0616 0.136974 3.81963C0.039305 5.21004 -0.00210647 6.60084 0.000237572 7.99164C-0.00366917 9.38244 0.0406073 10.7745 0.133067 12.168C0.133067 13.926 1.4262 15.3519 3.02015 15.3519C5.29387 15.4574 7.6262 15.5043 9.99759 15.5004C12.3729 15.5082 14.6987 15.4587 16.975 15.3519C18.5729 15.3519 19.866 13.926 19.866 12.168C19.9598 10.7732 20.0028 9.38244 19.9989 7.98774C20.0077 6.59694 19.9653 5.20483 19.8715 3.81143ZM8.0872 11.8242V4.14741L13.752 7.98383L8.0872 11.8242Z" fill="white"/>
</svg>
